<svg width="236" height="157" viewBox="0 0 236 157" fill="none" xmlns="http://www.w3.org/2000/svg">
<path d="M56.1801 56.4488L45.67 94.7371C41.9799 108.18 34.4814 120.269 24.0778 129.548C-3.19245 153.87 -7.81553 195.017 13.0306 225.028C27.6565 246.084 52.3944 258.11 77.9741 256.391L150.069 251.548C165.636 250.502 180.675 245.48 193.748 236.962C235.525 209.739 247.695 154.012 221.072 111.851L218.5 107.779C211.781 97.1383 207.633 85.0784 206.386 72.5557L206.043 69.1146C202.622 34.7618 176.612 6.95939 142.563 1.26003C103.877 -5.21547 66.563 18.6239 56.1801 56.4488Z" fill="#EDF0FB"/>
</svg>
