<svg width="54" height="26" viewBox="0 0 54 26" fill="none" xmlns="http://www.w3.org/2000/svg">
<path d="M13.4177 21.9536V24.9774H1.12553V21.9536H5.75977V4.63281H0.796875V1.60904H9.01359V21.9536H13.4177ZM30.7659 12.9153C31.6614 13.5357 32.3905 14.3669 32.8892 15.3355C33.3878 16.3041 33.6406 17.3804 33.6254 18.4697C33.6254 22.5124 30.6016 25.4375 26.5042 25.4375C22.4068 25.4375 19.3831 22.4795 19.3831 18.4697C19.3671 17.4032 19.6209 16.3499 20.1208 15.4075C20.6206 14.4652 21.3504 13.6645 22.2425 13.0796C21.4231 12.4744 20.7621 11.6803 20.3157 10.7646C19.8694 9.84904 19.6509 8.83913 19.6789 7.82089C19.6789 6.00489 20.4003 4.26326 21.6844 2.97915C22.9685 1.69504 24.7101 0.973633 26.5261 0.973633C28.3421 0.973633 30.0838 1.69504 31.3679 2.97915C32.652 4.26326 33.3734 6.00489 33.3734 7.82089C33.3763 8.8164 33.1412 9.79816 32.6876 10.6843C32.234 11.5705 31.5752 12.3354 30.7659 12.9153ZM26.4933 4.15076C26.0049 4.13746 25.5191 4.22494 25.0661 4.40775C24.6131 4.59055 24.2027 4.86476 23.8604 5.21325C23.5181 5.56174 23.2512 5.97703 23.0765 6.43322C22.9018 6.88941 22.823 7.37671 22.8451 7.86471C22.8169 8.35761 22.8894 8.85109 23.0584 9.31499C23.2274 9.77889 23.4891 10.2035 23.8277 10.5628C24.1663 10.9221 24.5746 11.2086 25.0276 11.4048C25.4807 11.601 25.969 11.7028 26.4627 11.7039C26.9564 11.705 27.4452 11.6055 27.8991 11.4113C28.353 11.2172 28.7626 10.9325 29.1028 10.5747C29.443 10.217 29.7067 9.79358 29.8777 9.33045C30.0488 8.86732 30.1236 8.37417 30.0977 7.88114C30.1194 7.39716 30.0419 6.91385 29.8698 6.46097C29.6977 6.00809 29.4347 5.59524 29.0971 5.24782C28.7594 4.90041 28.3542 4.62578 27.9064 4.44088C27.4586 4.25597 26.9777 4.16471 26.4933 4.17267V4.15076ZM26.4933 22.3919C27.2779 22.4016 28.0477 22.1781 28.7051 21.7496C29.3625 21.3211 29.8778 20.707 30.1856 19.9852C30.4934 19.2634 30.5798 18.4665 30.4339 17.6954C30.2881 16.9244 29.9165 16.2141 29.3662 15.6547C28.816 15.0952 28.112 14.7118 27.3436 14.5531C26.5751 14.3944 25.7768 14.4675 25.05 14.7633C24.3231 15.059 23.7005 15.564 23.2611 16.2141C22.8218 16.8643 22.5854 17.6303 22.5821 18.415C22.5521 18.9405 22.632 19.4665 22.8167 19.9594C23.0015 20.4523 23.2871 20.9013 23.6551 21.2776C24.0232 21.6539 24.4657 21.9493 24.9544 22.145C25.4431 22.3406 25.9672 22.4321 26.4933 22.4138V22.3919ZM47.6267 9.52449C51.1105 9.52449 53.707 12.2634 53.707 16.065V18.8915C53.7396 19.7536 53.5949 20.6132 53.2819 21.4171C52.9689 22.221 52.4942 22.9521 51.8873 23.5652C51.2804 24.1783 50.5541 24.6603 49.7534 24.9814C48.9527 25.3025 48.0946 25.4559 47.2323 25.432C43.5512 25.432 40.8232 22.8356 40.8232 19.2859V18.9244H44.0442V19.2859C44.029 19.7057 44.1016 20.124 44.2574 20.514C44.4131 20.9041 44.6485 21.2574 44.9486 21.5513C45.2486 21.8452 45.6068 22.0732 46 22.2207C46.3932 22.3683 46.8129 22.4322 47.2323 22.4083C49.1385 22.4083 50.4861 20.995 50.4861 18.8915V16.0979C50.4861 13.9944 49.1056 12.5811 47.1665 12.5811C46.7534 12.5698 46.3423 12.6428 45.9584 12.7957C45.5744 12.9486 45.2257 13.1782 44.9335 13.4704C44.6413 13.7626 44.4117 14.1114 44.2588 14.4953C44.1059 14.8793 44.0329 15.2903 44.0442 15.7035V15.802H41.0533V1.57618H53.0497V4.59446H44.2852V10.7077C45.2004 9.88971 46.4007 9.46469 47.6267 9.52449Z" fill="white"/>
</svg>
