<svg width="98" height="46" viewBox="0 0 98 46" fill="none" xmlns="http://www.w3.org/2000/svg">
<path d="M23.7681 39.0627V44.5827H1.33704V39.0627H9.79368V7.44269H0.737305V1.92267H15.7313V39.0627H23.7681ZM55.4254 22.5627C57.0594 23.6954 58.39 25.2127 59.2999 26.9809C60.2098 28.7492 60.6712 30.7141 60.6433 32.7027C60.6433 40.0827 55.1255 45.4227 47.6485 45.4227C40.1715 45.4227 34.6537 40.0227 34.6537 32.7027C34.6246 30.7556 35.0877 28.8327 35.9999 27.1125C36.9121 25.3923 38.2438 23.9304 39.8716 22.8627C38.3764 21.758 37.1702 20.3082 36.3556 18.6367C35.5411 16.9652 35.1424 15.1215 35.1935 13.2627C35.1935 9.94749 36.51 6.76806 38.8532 4.42386C41.1965 2.07965 44.3746 0.762695 47.6885 0.762695C51.0024 0.762695 54.1806 2.07965 56.5238 4.42386C58.8671 6.76806 60.1835 9.94749 60.1835 13.2627C60.1888 15.08 59.7597 16.8723 58.932 18.4901C58.1044 20.1078 56.9021 21.5042 55.4254 22.5627ZM47.6285 6.56268C46.7374 6.53842 45.8509 6.69811 45.0243 7.03183C44.1976 7.36555 43.4487 7.86614 42.824 8.50232C42.1993 9.1385 41.7124 9.89663 41.3936 10.7294C41.0748 11.5622 40.931 12.4518 40.9712 13.3427C40.9198 14.2425 41.0522 15.1434 41.3605 15.9902C41.6688 16.8371 42.1465 17.6122 42.7644 18.2682C43.3822 18.9241 44.1273 19.4472 44.954 19.8054C45.7807 20.1635 46.6718 20.3493 47.5727 20.3513C48.4736 20.3534 49.3656 20.1717 50.1939 19.8172C51.0223 19.4628 51.7697 18.9431 52.3905 18.29C53.0113 17.6368 53.4924 16.8639 53.8046 16.0185C54.1167 15.173 54.2533 14.2727 54.2059 13.3727C54.2456 12.4891 54.1041 11.6068 53.7901 10.7801C53.476 9.95334 52.9962 9.19965 52.38 8.56543C51.7638 7.93121 51.0244 7.42987 50.2072 7.09232C49.3901 6.75476 48.5125 6.58815 47.6285 6.60269V6.56268ZM47.6285 39.8627C49.0603 39.8805 50.4652 39.4724 51.6647 38.6902C52.8643 37.908 53.8046 36.7869 54.3663 35.4693C54.928 34.1516 55.0858 32.6967 54.8196 31.2892C54.5534 29.8816 53.8752 28.585 52.8712 27.5636C51.8671 26.5423 50.5825 25.8424 49.1801 25.5526C47.7778 25.2629 46.3211 25.3965 44.9947 25.9363C43.6684 26.4762 42.5323 27.3981 41.7305 28.5849C40.9287 29.7718 40.4975 31.1702 40.4914 32.6027C40.4366 33.5621 40.5824 34.5224 40.9195 35.4222C41.2567 36.322 41.7778 37.1416 42.4494 37.8286C43.1211 38.5155 43.9286 39.0548 44.8204 39.412C45.7122 39.7691 46.6685 39.9362 47.6285 39.9027V39.8627ZM86.1931 16.3727C92.5506 16.3727 97.2887 21.3727 97.2887 28.3127V33.4727C97.3481 35.0464 97.084 36.6157 96.5128 38.0832C95.9417 39.5508 95.0755 40.8855 93.968 42.0047C92.8605 43.1239 91.5351 44.0038 90.074 44.59C88.6129 45.1762 87.0471 45.4562 85.4734 45.4127C78.7561 45.4127 73.7781 40.6727 73.7781 34.1927V33.5327H79.6558V34.1927C79.6281 34.9589 79.7606 35.7225 80.0448 36.4346C80.3289 37.1467 80.7585 37.7917 81.3061 38.3282C81.8537 38.8647 82.5072 39.2809 83.2248 39.5503C83.9423 39.8197 84.7082 39.9363 85.4734 39.8927C88.952 39.8927 91.411 37.3127 91.411 33.4727V28.3727C91.411 24.5327 88.892 21.9527 85.3534 21.9527C84.5996 21.932 83.8494 22.0653 83.1488 22.3445C82.4482 22.6236 81.8118 23.0427 81.2786 23.5761C80.7453 24.1096 80.3263 24.7463 80.0473 25.4472C79.7683 26.1481 79.6351 26.8985 79.6558 27.6527V27.8327H74.1979V1.86267H96.0892V7.37268H80.0956V18.5327C81.7656 17.0394 83.9559 16.2635 86.1931 16.3727Z" fill="white"/>
</svg>
