<svg width="210" height="33" viewBox="0 0 210 33" fill="none" xmlns="http://www.w3.org/2000/svg">
<path d="M59.402 3.36548H62.9001C63.7599 3.36548 64.3977 3.43624 64.8136 3.57778C65.235 3.71387 65.5947 3.96699 65.8925 4.33715C66.196 4.70732 66.3477 5.15097 66.3477 5.66811C66.3477 6.08182 66.2578 6.44381 66.078 6.7541C65.9038 7.05894 65.6396 7.31478 65.2856 7.52164C65.7071 7.65773 66.0555 7.91358 66.3308 8.28918C66.6118 8.65935 66.7523 9.10027 66.7523 9.61197C66.6961 10.4339 66.3927 11.0436 65.8419 11.441C65.2912 11.8384 64.4905 12.0371 63.4396 12.0371H59.402V3.36548ZM60.9192 7.01539H62.5377C63.1839 7.01539 63.6279 6.98273 63.8695 6.9174C64.1111 6.85208 64.3275 6.72144 64.5185 6.52547C64.7096 6.32406 64.8051 6.08454 64.8051 5.80692C64.8051 5.34966 64.6366 5.03121 64.2994 4.85157C63.9678 4.67193 63.3975 4.58211 62.5882 4.58211H60.9192V7.01539ZM60.9192 10.8286H62.917C63.7768 10.8286 64.3668 10.7333 64.6871 10.5428C65.0074 10.3469 65.176 10.0121 65.1929 9.53848C65.1929 9.26086 65.1002 9.00501 64.9147 8.77094C64.7293 8.53142 64.4876 8.38172 64.1898 8.32184C63.892 8.25652 63.4143 8.22386 62.7568 8.22386H60.9192V10.8286Z" fill="black"/>
<path d="M75.0956 15.3604V3.36548H76.478V4.4923C76.804 4.05137 77.172 3.72203 77.5823 3.50429C77.9925 3.2811 78.4898 3.16951 79.0742 3.16951C79.8385 3.16951 80.5128 3.36003 81.0973 3.74108C81.6817 4.12213 82.1228 4.66105 82.4207 5.35782C82.7185 6.04916 82.8674 6.80853 82.8674 7.63596C82.8674 8.52326 82.7016 9.32346 82.3701 10.0366C82.0442 10.7442 81.5665 11.2886 80.9371 11.6696C80.3133 12.0452 79.6559 12.233 78.9647 12.233C78.4589 12.233 78.0037 12.1296 77.5991 11.9228C77.2001 11.7159 76.8714 11.4546 76.6129 11.1389V15.3604H75.0956ZM76.4696 7.75027C76.4696 8.8662 76.7028 9.6909 77.1692 10.2244C77.6356 10.7578 78.2004 11.0246 78.8635 11.0246C79.5379 11.0246 80.1139 10.7497 80.5915 10.1999C81.0748 9.64463 81.3164 8.78727 81.3164 7.62779C81.3164 6.52275 81.0804 5.69532 80.6084 5.14552C80.142 4.59572 79.5828 4.32082 78.9309 4.32082C78.2847 4.32082 77.7115 4.61478 77.2114 5.20268C76.7169 5.78514 76.4696 6.63434 76.4696 7.75027Z" fill="black"/>
<path d="M91.6962 9.24453L93.2641 9.43233C93.0168 10.3196 92.5588 11.0082 91.8901 11.4982C91.2214 11.9881 90.3672 12.233 89.3276 12.233C88.0183 12.233 86.9786 11.8438 86.2088 11.0654C85.4445 10.2815 85.0624 9.18465 85.0624 7.77477C85.0624 6.31589 85.4501 5.18363 86.2256 4.37798C87.0011 3.57233 88.007 3.16951 89.2433 3.16951C90.4403 3.16951 91.4181 3.56417 92.1767 4.35348C92.9353 5.1428 93.3147 6.25329 93.3147 7.68495C93.3147 7.77204 93.3118 7.90269 93.3062 8.07688H86.6302C86.6864 9.02951 86.9646 9.75895 87.4647 10.2652C87.9649 10.7714 88.5886 11.0246 89.336 11.0246C89.8924 11.0246 90.3672 10.883 90.7606 10.6C91.154 10.3169 91.4658 9.8651 91.6962 9.24453ZM86.7145 6.86841H91.7131C91.6457 6.13897 91.4546 5.5919 91.1399 5.22718C90.6566 4.66105 90.03 4.37798 89.2602 4.37798C88.5634 4.37798 87.9761 4.60389 87.4985 5.0557C87.0264 5.50752 86.7651 6.11176 86.7145 6.86841Z" fill="black"/>
<path d="M96.0407 3.36548H97.558V9.97941L101.764 3.36548H103.399V12.0371H101.882V5.46397L97.676 12.0371H96.0407V3.36548ZM101.309 0.0830078H102.346C102.262 0.763454 102.003 1.28604 101.57 1.65075C101.143 2.01547 100.573 2.19783 99.8592 2.19783C99.1399 2.19783 98.5639 2.0182 98.1312 1.65892C97.7041 1.2942 97.4484 0.768897 97.3641 0.0830078H98.4009C98.4796 0.45317 98.6341 0.730792 98.8645 0.915873C99.1005 1.09551 99.4152 1.18533 99.8086 1.18533C100.264 1.18533 100.607 1.09823 100.837 0.924039C101.073 0.744401 101.23 0.464057 101.309 0.0830078Z" fill="black"/>
<path d="M105.729 3.36548H113.004V4.58211H110.121V12.0371H108.612V4.58211H105.729V3.36548Z" fill="black"/>
<path d="M115.317 3.36548H116.834V9.97941L121.04 3.36548H122.676V12.0371H121.158V5.46397L116.952 12.0371H115.317V3.36548Z" fill="black"/>
<path d="M125.831 3.36548H127.349V6.97456H131.555V3.36548H133.072V12.0371H131.555V8.1912H127.349V12.0371H125.831V3.36548Z" fill="black"/>
<path d="M136.237 3.36548H141.387V4.58211H137.754V12.0371H136.237V3.36548Z" fill="black"/>
<path d="M149.137 9.24453L150.705 9.43233C150.457 10.3196 149.999 11.0082 149.331 11.4982C148.662 11.9881 147.808 12.233 146.768 12.233C145.459 12.233 144.419 11.8438 143.649 11.0654C142.885 10.2815 142.503 9.18465 142.503 7.77477C142.503 6.31589 142.891 5.18363 143.666 4.37798C144.442 3.57233 145.448 3.16951 146.684 3.16951C147.881 3.16951 148.859 3.56417 149.617 4.35348C150.376 5.1428 150.755 6.25329 150.755 7.68495C150.755 7.77204 150.752 7.90269 150.747 8.07688H144.071C144.127 9.02951 144.405 9.75895 144.905 10.2652C145.405 10.7714 146.029 11.0246 146.777 11.0246C147.333 11.0246 147.808 10.883 148.201 10.6C148.594 10.3169 148.906 9.8651 149.137 9.24453ZM144.155 6.86841H149.154C149.086 6.13897 148.895 5.5919 148.58 5.22718C148.097 4.66105 147.471 4.37798 146.701 4.37798C146.004 4.37798 145.417 4.60389 144.939 5.0557C144.467 5.50752 144.206 6.11176 144.155 6.86841Z" fill="black"/>
<path d="M0.381836 32.083V20.0881H1.76424V21.2149C2.09017 20.774 2.45825 20.4447 2.86847 20.2269C3.2787 20.0037 3.77603 19.8921 4.36046 19.8921C5.12471 19.8921 5.79905 20.0827 6.38348 20.4637C6.96792 20.8448 7.40905 21.3837 7.70688 22.0805C8.00472 22.7718 8.15363 23.5312 8.15363 24.3586C8.15363 25.2459 7.98786 26.0461 7.65631 26.7592C7.33037 27.4669 6.85271 28.0112 6.22333 28.3923C5.59956 28.7679 4.94208 28.9557 4.25088 28.9557C3.74512 28.9557 3.28994 28.8523 2.88533 28.6454C2.48635 28.4385 2.1576 28.1772 1.89911 27.8615V32.083H0.381836ZM1.75581 24.4729C1.75581 25.5888 1.98902 26.4135 2.45544 26.947C2.92186 27.4805 3.48662 27.7472 4.14973 27.7472C4.82407 27.7472 5.40007 27.4723 5.87773 26.9225C6.36101 26.3673 6.60265 25.5099 6.60265 24.3504C6.60265 23.2454 6.36663 22.418 5.89459 21.8682C5.42817 21.3184 4.86902 21.0435 4.21716 21.0435C3.57091 21.0435 2.99772 21.3374 2.49759 21.9253C2.00307 22.5078 1.75581 23.357 1.75581 24.4729Z" fill="black"/>
<path d="M16.6959 27.6901C16.1339 28.1528 15.5916 28.4794 15.069 28.6699C14.552 28.8604 13.9957 28.9557 13.4 28.9557C12.4166 28.9557 11.6608 28.7243 11.1325 28.2616C10.6043 27.7935 10.3402 27.1974 10.3402 26.4734C10.3402 26.0488 10.4385 25.6623 10.6352 25.3139C10.8375 24.9601 11.0988 24.677 11.4191 24.4647C11.7451 24.2524 12.1103 24.0919 12.5149 23.983C12.8128 23.9068 13.2623 23.8333 13.8636 23.7625C15.0887 23.621 15.9906 23.4522 16.5694 23.2563C16.575 23.0549 16.5778 22.9269 16.5778 22.8725C16.5778 22.2737 16.4345 21.8518 16.148 21.6069C15.7602 21.2748 15.1842 21.1088 14.4199 21.1088C13.7063 21.1088 13.178 21.2313 12.8352 21.4762C12.4981 21.7157 12.248 22.1431 12.085 22.7582L10.6015 22.5622C10.7364 21.9471 10.9583 21.4517 11.2674 21.0761C11.5765 20.6951 12.0232 20.4038 12.6077 20.2024C13.1921 19.9956 13.8692 19.8921 14.6391 19.8921C15.4034 19.8921 16.0243 19.9792 16.502 20.1534C16.9796 20.3276 17.3309 20.5481 17.5556 20.8148C17.7804 21.0761 17.9378 21.4082 18.0277 21.811C18.0783 22.0614 18.1035 22.5132 18.1035 23.1664V25.1261C18.1035 26.4925 18.1345 27.358 18.1963 27.7227C18.2637 28.082 18.393 28.4277 18.584 28.7597H16.9993C16.842 28.4549 16.7408 28.0983 16.6959 27.6901ZM16.5694 24.4076C16.0187 24.6253 15.1926 24.8104 14.0912 24.9628C13.4674 25.0499 13.0263 25.1479 12.7678 25.2568C12.5093 25.3656 12.3098 25.5262 12.1693 25.7385C12.0288 25.9454 11.9586 26.1767 11.9586 26.4326C11.9586 26.8245 12.1103 27.1511 12.4138 27.4124C12.7229 27.6737 13.1724 27.8044 13.7625 27.8044C14.3469 27.8044 14.8667 27.6819 15.3219 27.4369C15.7771 27.1865 16.1114 26.8463 16.325 26.4163C16.4879 26.0842 16.5694 25.5943 16.5694 24.9465V24.4076Z" fill="black"/>
<path d="M27.8849 16.5035L29.2251 16.5199C29.1633 17.1023 29.0284 17.5079 28.8205 17.7365C28.6182 17.9651 28.3541 18.1121 28.0282 18.1774C27.7079 18.2427 27.0757 18.2754 26.1316 18.2754C24.8784 18.2754 24.0243 18.3924 23.5691 18.6265C23.1139 18.8606 22.7852 19.2362 22.5829 19.7533C22.3862 20.265 22.2766 20.9264 22.2541 21.7375C22.6362 21.1877 23.083 20.7767 23.5944 20.5045C24.1057 20.2269 24.6817 20.0881 25.3224 20.0881C26.4969 20.0881 27.469 20.48 28.2389 21.2639C29.0088 22.0424 29.3937 23.0984 29.3937 24.4321C29.3937 25.4446 29.1998 26.2747 28.8121 26.9225C28.4243 27.5703 27.9635 28.0711 27.4297 28.4249C26.9015 28.7788 26.1793 28.9557 25.2634 28.9557C24.2013 28.9557 23.3752 28.7216 22.7852 28.2535C22.1951 27.7799 21.7427 27.1756 21.428 26.4408C21.1133 25.7059 20.956 24.4266 20.956 22.603C20.956 20.3113 21.355 18.768 22.153 17.9733C22.9566 17.1785 24.19 16.7811 25.8534 16.7811C26.8874 16.7811 27.4746 16.7648 27.6151 16.7322C27.7556 16.6995 27.8455 16.6233 27.8849 16.5035ZM27.809 24.3912C27.809 23.4876 27.587 22.7473 27.1431 22.1703C26.7048 21.5933 26.0838 21.3047 25.2802 21.3047C24.4429 21.3047 23.7967 21.6096 23.3415 22.2193C22.8863 22.8289 22.6587 23.6428 22.6587 24.6607C22.6587 25.6678 22.9088 26.438 23.4089 26.9715C23.9147 27.505 24.5356 27.7717 25.2718 27.7717C26.0248 27.7717 26.6345 27.4641 27.1009 26.849C27.573 26.2285 27.809 25.4092 27.809 24.3912Z" fill="black"/>
<path d="M31.5213 24.4239C31.5213 22.8181 31.9821 21.6286 32.9037 20.8557C33.6735 20.2133 34.612 19.8921 35.7191 19.8921C36.9497 19.8921 37.9556 20.2841 38.7367 21.068C39.5178 21.8464 39.9084 22.9242 39.9084 24.3014C39.9084 25.4174 39.7342 26.2965 39.3858 26.9388C39.043 27.5757 38.5401 28.0711 37.8769 28.4249C37.2195 28.7788 36.5002 28.9557 35.7191 28.9557C34.4659 28.9557 33.4516 28.5665 32.6761 27.788C31.9062 27.0096 31.5213 25.8882 31.5213 24.4239ZM33.0807 24.4239C33.0807 25.5344 33.3308 26.3673 33.8309 26.9225C34.331 27.4723 34.9604 27.7472 35.7191 27.7472C36.4721 27.7472 37.0986 27.4696 37.5988 26.9143C38.0989 26.3591 38.349 25.5126 38.349 24.3749C38.349 23.3025 38.0961 22.4914 37.5904 21.9416C37.0902 21.3864 36.4664 21.1088 35.7191 21.1088C34.9604 21.1088 34.331 21.3837 33.8309 21.9335C33.3308 22.4833 33.0807 23.3134 33.0807 24.4239Z" fill="black"/>
<path d="M41.3532 20.0881H48.6277V21.3047H45.7449V28.7597H44.236V21.3047H41.3532V20.0881Z" fill="black"/>
<path d="M50.1736 24.4239C50.1736 22.8181 50.6344 21.6286 51.556 20.8557C52.3259 20.2133 53.2643 19.8921 54.3714 19.8921C55.602 19.8921 56.6079 20.2841 57.3891 21.068C58.1702 21.8464 58.5607 22.9242 58.5607 24.3014C58.5607 25.4174 58.3865 26.2965 58.0381 26.9388C57.6953 27.5757 57.1924 28.0711 56.5293 28.4249C55.8718 28.7788 55.1525 28.9557 54.3714 28.9557C53.1182 28.9557 52.1039 28.5665 51.3284 27.788C50.5585 27.0096 50.1736 25.8882 50.1736 24.4239ZM51.733 24.4239C51.733 25.5344 51.9831 26.3673 52.4832 26.9225C52.9834 27.4723 53.6127 27.7472 54.3714 27.7472C55.1244 27.7472 55.751 27.4696 56.2511 26.9143C56.7512 26.3591 57.0013 25.5126 57.0013 24.3749C57.0013 23.3025 56.7484 22.4914 56.2427 21.9416C55.7425 21.3864 55.1188 21.1088 54.3714 21.1088C53.6127 21.1088 52.9834 21.3837 52.4832 21.9335C51.9831 22.4833 51.733 23.3134 51.733 24.4239Z" fill="black"/>
<path d="M62.0201 20.0881H68.2578V27.5512H69.2272V31.2175H67.9796V28.7597H60.9327V31.2175H59.6852V27.5512H60.486C61.5537 26.1468 62.0651 23.6591 62.0201 20.0881ZM63.2845 21.3047C63.1721 24.1191 62.7226 26.2012 61.9358 27.5512H66.749V21.3047H63.2845Z" fill="black"/>
<path d="M77.6092 27.6901C77.0473 28.1528 76.505 28.4794 75.9824 28.6699C75.4654 28.8604 74.909 28.9557 74.3134 28.9557C73.33 28.9557 72.5741 28.7243 72.0459 28.2616C71.5177 27.7935 71.2535 27.1974 71.2535 26.4734C71.2535 26.0488 71.3519 25.6623 71.5486 25.3139C71.7509 24.9601 72.0122 24.677 72.3325 24.4647C72.6584 24.2524 73.0237 24.0919 73.4283 23.983C73.7261 23.9068 74.1757 23.8333 74.777 23.7625C76.002 23.621 76.904 23.4522 77.4828 23.2563C77.4884 23.0549 77.4912 22.9269 77.4912 22.8725C77.4912 22.2737 77.3479 21.8518 77.0613 21.6069C76.6736 21.2748 76.0976 21.1088 75.3333 21.1088C74.6196 21.1088 74.0914 21.2313 73.7486 21.4762C73.4114 21.7157 73.1614 22.1431 72.9984 22.7582L71.5149 22.5622C71.6497 21.9471 71.8717 21.4517 72.1808 21.0761C72.4898 20.6951 72.9366 20.4038 73.521 20.2024C74.1055 19.9956 74.7826 19.8921 75.5525 19.8921C76.3167 19.8921 76.9377 19.9792 77.4154 20.1534C77.893 20.3276 78.2442 20.5481 78.469 20.8148C78.6938 21.0761 78.8511 21.4082 78.9411 21.811C78.9916 22.0614 79.0169 22.5132 79.0169 23.1664V25.1261C79.0169 26.4925 79.0478 27.358 79.1096 27.7227C79.1771 28.082 79.3063 28.4277 79.4974 28.7597H77.9127C77.7553 28.4549 77.6542 28.0983 77.6092 27.6901ZM77.4828 24.4076C76.9321 24.6253 76.106 24.8104 75.0046 24.9628C74.3808 25.0499 73.9397 25.1479 73.6812 25.2568C73.4227 25.3656 73.2232 25.5262 73.0827 25.7385C72.9422 25.9454 72.872 26.1767 72.872 26.4326C72.872 26.8245 73.0237 27.1511 73.3271 27.4124C73.6362 27.6737 74.0858 27.8044 74.6758 27.8044C75.2603 27.8044 75.7801 27.6819 76.2353 27.4369C76.6904 27.1865 77.0248 26.8463 77.2383 26.4163C77.4013 26.0842 77.4828 25.5943 77.4828 24.9465V24.4076Z" fill="black"/>
<path d="M81.0349 20.0881H88.3094V21.3047H85.4266V28.7597H83.9177V21.3047H81.0349V20.0881Z" fill="black"/>
<path d="M96.5481 25.9672L98.116 26.155C97.8687 27.0423 97.4107 27.7309 96.742 28.2208C96.0733 28.7107 95.2191 28.9557 94.1795 28.9557C92.8702 28.9557 91.8306 28.5665 91.0607 27.788C90.2964 27.0042 89.9143 25.9073 89.9143 24.4974C89.9143 23.0385 90.302 21.9063 91.0775 21.1006C91.853 20.295 92.8589 19.8921 94.0952 19.8921C95.2922 19.8921 96.27 20.2868 97.0286 21.0761C97.7872 21.8654 98.1666 22.9759 98.1666 24.4076C98.1666 24.4947 98.1638 24.6253 98.1581 24.7995H91.4821C91.5383 25.7521 91.8165 26.4816 92.3166 26.9878C92.8168 27.4941 93.4405 27.7472 94.1879 27.7472C94.7443 27.7472 95.2191 27.6057 95.6125 27.3226C96.0059 27.0395 96.3177 26.5877 96.5481 25.9672ZM91.5664 23.591H96.565C96.4976 22.8616 96.3065 22.3145 95.9918 21.9498C95.5085 21.3837 94.882 21.1006 94.1121 21.1006C93.4153 21.1006 92.828 21.3265 92.3504 21.7783C91.8783 22.2302 91.617 22.8344 91.5664 23.591Z" fill="black"/>
<path d="M101.061 20.0881H108.108V28.7597H106.599V21.3047H102.578V25.6242C102.578 26.6313 102.545 27.2954 102.477 27.6166C102.41 27.9377 102.224 28.2181 101.921 28.4576C101.618 28.6971 101.179 28.8169 100.606 28.8169C100.252 28.8169 99.8445 28.7951 99.3837 28.7515V27.5267H100.05C100.364 27.5267 100.589 27.4968 100.724 27.4369C100.859 27.3716 100.949 27.2709 100.994 27.1348C101.039 26.9987 101.061 26.5551 101.061 25.8039V20.0881Z" fill="black"/>
<path d="M117.392 25.9672L118.96 26.155C118.713 27.0423 118.255 27.7309 117.586 28.2208C116.917 28.7107 116.063 28.9557 115.023 28.9557C113.714 28.9557 112.674 28.5665 111.905 27.788C111.14 27.0042 110.758 25.9073 110.758 24.4974C110.758 23.0385 111.146 21.9063 111.921 21.1006C112.697 20.295 113.703 19.8921 114.939 19.8921C116.136 19.8921 117.114 20.2868 117.873 21.0761C118.631 21.8654 119.011 22.9759 119.011 24.4076C119.011 24.4947 119.008 24.6253 119.002 24.7995H112.326C112.382 25.7521 112.66 26.4816 113.161 26.9878C113.661 27.4941 114.284 27.7472 115.032 27.7472C115.588 27.7472 116.063 27.6057 116.456 27.3226C116.85 27.0395 117.162 26.5877 117.392 25.9672ZM112.41 23.591H117.409C117.342 22.8616 117.15 22.3145 116.836 21.9498C116.352 21.3837 115.726 21.1006 114.956 21.1006C114.259 21.1006 113.672 21.3265 113.194 21.7783C112.722 22.2302 112.461 22.8344 112.41 23.591Z" fill="black"/>
<path d="M121.737 20.0881H123.254V26.702L127.46 20.0881H129.095V28.7597H127.578V22.1866L123.372 28.7597H121.737V20.0881ZM127.005 16.8056H128.042C127.957 17.4861 127.699 18.0087 127.266 18.3734C126.839 18.7381 126.269 18.9205 125.555 18.9205C124.836 18.9205 124.26 18.7408 123.827 18.3816C123.4 18.0168 123.144 17.4915 123.06 16.8056H124.097C124.175 17.1758 124.33 17.4534 124.56 17.6385C124.796 17.8181 125.111 17.908 125.504 17.908C125.96 17.908 126.302 17.8209 126.533 17.6467C126.769 17.467 126.926 17.1867 127.005 16.8056Z" fill="black"/>
<path d="M138.037 28.7597V16.7893H142.673C143.617 16.7893 144.373 16.9118 144.941 17.1568C145.514 17.3963 145.961 17.7692 146.281 18.2754C146.607 18.7762 146.77 19.3015 146.77 19.8513C146.77 20.363 146.627 20.8448 146.34 21.2966C146.053 21.7484 145.621 22.1131 145.042 22.3907C145.789 22.603 146.362 22.965 146.761 23.4767C147.166 23.9884 147.368 24.5927 147.368 25.2894C147.368 25.8501 147.245 26.3727 146.997 26.8572C146.756 27.3362 146.455 27.7064 146.095 27.9677C145.736 28.229 145.283 28.4277 144.738 28.5637C144.199 28.6944 143.536 28.7597 142.749 28.7597H138.037ZM139.672 21.8192H142.344C143.069 21.8192 143.589 21.7729 143.904 21.6804C144.32 21.5606 144.632 21.3619 144.84 21.0843C145.053 20.8067 145.16 20.4583 145.16 20.0391C145.16 19.6417 145.061 19.2934 144.865 18.994C144.668 18.6891 144.387 18.4823 144.022 18.3734C143.657 18.2591 143.03 18.2019 142.142 18.2019H139.672V21.8192ZM139.672 27.3471H142.749C143.277 27.3471 143.648 27.3281 143.862 27.2899C144.238 27.2246 144.553 27.1158 144.806 26.9633C145.059 26.8109 145.267 26.5905 145.43 26.3019C145.593 26.008 145.674 25.6705 145.674 25.2894C145.674 24.8431 145.556 24.4566 145.32 24.13C145.084 23.7979 144.755 23.5665 144.334 23.4359C143.918 23.2998 143.317 23.2318 142.53 23.2318H139.672V27.3471Z" fill="black"/>
<path d="M150.49 16.7893H152.126V27.3471H158.566V16.7893H160.209V27.3471H161.339V32.083H159.889V28.7597H150.49V16.7893Z" fill="black"/>
<path d="M164.149 16.7893H165.633V26.2693L172.208 16.7893H173.851V28.7597H172.368V19.3042L165.785 28.7597H164.149V16.7893Z" fill="black"/>
<path d="M176.898 22.9297C176.898 20.9428 177.448 19.3886 178.55 18.2672C179.651 17.1404 181.073 16.577 182.815 16.577C183.956 16.577 184.984 16.841 185.9 17.3691C186.816 17.8971 187.513 18.6347 187.991 19.5819C188.474 20.5236 188.716 21.5933 188.716 22.7908C188.716 24.0048 188.463 25.0907 187.957 26.0488C187.451 27.0069 186.735 27.7336 185.807 28.229C184.88 28.7189 183.88 28.9638 182.807 28.9638C181.643 28.9638 180.604 28.6917 179.688 28.1473C178.772 27.603 178.078 26.8599 177.606 25.9182C177.134 24.9764 176.898 23.9803 176.898 22.9297ZM178.584 22.9541C178.584 24.3967 178.983 25.5344 179.781 26.3673C180.584 27.1947 181.59 27.6084 182.798 27.6084C184.029 27.6084 185.04 27.1892 185.833 26.3509C186.631 25.5126 187.03 24.3232 187.03 22.7827C187.03 21.8083 186.858 20.9591 186.516 20.2351C186.178 19.5056 185.681 18.9422 185.024 18.5449C184.372 18.142 183.638 17.9406 182.824 17.9406C181.666 17.9406 180.668 18.3271 179.831 19.1001C178.999 19.8676 178.584 21.1523 178.584 22.9541Z" fill="black"/>
<path d="M191.644 28.7597V16.7893H194.105L197.03 25.2649C197.3 26.0543 197.497 26.6449 197.62 27.0368C197.761 26.6013 197.98 25.9617 198.278 25.118L201.236 16.7893H203.436V28.7597H201.86V18.7408L198.269 28.7597H196.794L193.22 18.5694V28.7597H191.644Z" fill="black"/>
<path d="M208.396 22.7745V18.2509C207.823 18.6918 207.194 18.9994 206.508 19.1736V18.1693C206.857 18.0604 207.244 17.8617 207.671 17.5732C208.098 17.2847 208.444 16.9744 208.708 16.6423H209.619V22.7745H208.396Z" fill="black"/>
</svg>
