<svg width="294" height="39" viewBox="0 0 294 39" fill="none" xmlns="http://www.w3.org/2000/svg">
<path d="M22.7461 18.8156C24.5076 19.7693 25.942 21.0466 26.9229 22.5353C27.9038 24.0239 28.4012 25.6781 28.3712 27.3522C28.3712 33.5652 22.4229 38.0608 14.3626 38.0608C6.30221 38.0608 0.353932 33.5147 0.353932 27.3522C0.322561 25.713 0.821667 24.0942 1.80503 22.646C2.78839 21.1978 4.22411 19.9671 5.9789 19.0682C4.36702 18.1382 3.06668 16.9176 2.1886 15.5104C1.31053 14.1033 0.880739 12.5512 0.935805 10.9863C0.935805 8.19529 2.35491 5.5186 4.88099 3.54509C7.40707 1.57157 10.8332 0.462891 14.4056 0.462891C17.9781 0.462891 21.4041 1.57157 23.9302 3.54509C26.4563 5.5186 27.8755 8.19529 27.8755 10.9863C27.8812 12.5162 27.4186 14.0251 26.5264 15.387C25.6341 16.749 24.338 17.9245 22.7461 18.8156ZM14.341 5.34573C13.3804 5.3253 12.4247 5.45976 11.5336 5.74071C10.6424 6.02166 9.83495 6.44307 9.16154 6.97865C8.48814 7.51423 7.96326 8.15248 7.61962 8.85358C7.27597 9.55469 7.12092 10.3036 7.16422 11.0536C7.16422 12.534 7.91694 13.9537 9.25678 15.0004C10.5966 16.0472 12.4138 16.6352 14.3086 16.6352C16.2034 16.6352 18.0207 16.0472 19.3605 15.0004C20.7004 13.9537 21.453 12.534 21.453 11.0536C21.4975 10.3077 21.3454 9.5625 21.0062 8.86432C20.6671 8.16615 20.1481 7.52982 19.4814 6.99473C18.8146 6.45964 18.0144 6.03721 17.1302 5.75356C16.246 5.46991 15.2966 5.33109 14.341 5.34573ZM14.341 33.38C15.8845 33.395 17.3989 33.0515 18.6921 32.393C19.9853 31.7344 20.9989 30.7906 21.6044 29.6813C22.2099 28.572 22.38 27.3472 22.093 26.1622C21.8061 24.9773 21.075 23.8856 19.9927 23.0258C18.9103 22.166 17.5253 21.5767 16.0136 21.3328C14.5019 21.0889 12.9315 21.2013 11.5017 21.6558C10.0719 22.1103 8.84713 22.8864 7.9828 23.8856C7.11848 24.8848 6.65352 26.062 6.647 27.268C6.58792 28.0757 6.74513 28.8841 7.10858 29.6417C7.47202 30.3992 8.03372 31.0892 8.75778 31.6675C9.48184 32.2459 10.3523 32.6999 11.3137 33.0006C12.275 33.3012 13.3061 33.4419 14.341 33.4137V33.38ZM55.9035 13.5792C62.7569 13.5792 67.8647 17.7885 67.8647 23.6311V27.9752C67.9346 29.3014 67.6551 30.6247 67.0434 31.863C66.4317 33.1013 65.5008 34.2282 64.3086 35.1739C63.1164 36.1195 61.6881 36.8638 60.1126 37.3604C58.537 37.857 56.8476 38.0953 55.1492 38.0608C47.9078 38.0608 42.5414 34.0703 42.5414 28.615V28.0762H48.8776V28.6318C48.8478 29.2769 48.9906 29.9198 49.297 30.5192C49.6033 31.1187 50.0665 31.6617 50.6568 32.1134C51.2471 32.565 51.9515 32.9155 52.7251 33.1423C53.4986 33.3691 54.3243 33.4672 55.1492 33.4305C58.8992 33.4305 61.55 31.2585 61.55 28.0257V23.6817C61.55 20.4489 58.8345 18.2768 55.0199 18.2768C54.2072 18.2594 53.3985 18.3717 52.6432 18.6067C51.888 18.8417 51.2019 19.1945 50.627 19.6436C50.0522 20.0927 49.6006 20.6287 49.2998 21.2188C48.999 21.8088 48.8553 22.4406 48.8776 23.0755V23.227H42.9725V1.38893H66.5716V6.03606H49.3302V15.4482C51.1271 14.1849 53.4887 13.5256 55.9035 13.6129V13.5792ZM107.951 0.631275C109.715 0.595952 111.469 0.842997 113.106 1.35727C114.743 1.87155 116.229 2.64217 117.47 3.62165C118.712 4.60112 119.684 5.76872 120.326 7.05264C120.968 8.33656 121.268 9.70963 121.205 11.0873V27.5543C121.205 33.6157 115.645 38.0608 107.951 38.0608C100.257 38.0608 94.7612 33.6157 94.7612 27.5543V11.0873C94.6993 9.71398 94.9966 8.34526 95.635 7.06482C96.2734 5.78437 97.2395 4.61909 98.4741 3.64035C99.7088 2.66161 101.186 1.88998 102.815 1.37259C104.445 0.855189 106.192 0.60294 107.951 0.631275ZM107.951 5.27836C103.942 5.27836 101.033 7.65245 101.033 11.0873V20.0784L114.869 12.7542V11.0704C114.901 7.65244 112.121 5.27836 107.951 5.27836ZM107.951 33.4137C112.024 33.4137 114.869 31.0396 114.869 27.5206V17.6033L101.033 24.9276V27.5543C101.065 31.0396 103.91 33.4137 107.951 33.4137ZM146.744 0.631275C148.508 0.595952 150.262 0.842997 151.9 1.35727C153.537 1.87155 155.022 2.64217 156.263 3.62165C157.505 4.60112 158.477 5.76872 159.119 7.05264C159.761 8.33656 160.061 9.70963 159.998 11.0873V27.5543C159.998 33.6157 154.438 38.0608 146.744 38.0608C139.05 38.0608 133.554 33.6157 133.554 27.5543V11.0873C133.492 9.71398 133.79 8.34526 134.428 7.06482C135.067 5.78437 136.033 4.61909 137.267 3.64035C138.502 2.66161 139.979 1.88998 141.609 1.37259C143.238 0.855189 144.985 0.60294 146.744 0.631275ZM146.744 5.27836C142.735 5.27836 139.826 7.65245 139.826 11.0873V20.0784L153.662 12.7542V11.0704C153.684 7.65244 150.903 5.27836 146.744 5.27836ZM146.744 33.4137C150.817 33.4137 153.662 31.0396 153.662 27.5206V17.6033L139.826 24.9276V27.5543C139.847 31.0396 142.692 33.4137 146.744 33.4137ZM185.537 0.631275C187.301 0.595952 189.056 0.842997 190.693 1.35727C192.33 1.87155 193.815 2.64217 195.056 3.62165C196.298 4.60112 197.27 5.76872 197.912 7.05264C198.555 8.33656 198.854 9.70963 198.791 11.0873V27.5543C198.791 33.6157 193.231 38.0608 185.537 38.0608C177.843 38.0608 172.347 33.6157 172.347 27.5543V11.0873C172.286 9.71398 172.583 8.34526 173.221 7.06482C173.86 5.78437 174.826 4.61909 176.06 3.64035C177.295 2.66161 178.772 1.88998 180.402 1.37259C182.031 0.855189 183.779 0.60294 185.537 0.631275ZM185.537 5.27836C181.528 5.27836 178.619 7.65245 178.619 11.0873V20.0784L192.455 12.7542V11.0704C192.466 7.65244 189.686 5.27836 185.537 5.27836ZM185.537 33.4137C189.61 33.4137 192.455 31.0396 192.455 27.5206V17.6033L178.619 24.9276V27.5543C178.63 31.0396 181.475 33.4137 185.537 33.4137ZM249.115 37.3368L238.576 20.6678L234.6 25.5506V37.3368H228.199V1.43944H234.6V17.9738L248.5 1.40578H255.936L242.746 16.6099L256.518 37.3368H249.115ZM287.703 1.47314H293.393V37.3368H287.186V11.5419L279.88 24.1699H278.651L271.41 11.6429V37.3368H265.279V1.47314H270.968L279.373 16.0711L287.703 1.47314Z" fill="black"/>
</svg>
