<svg width="147" height="45" viewBox="0 0 147 45" fill="none" xmlns="http://www.w3.org/2000/svg">
<path d="M23.04 38.1V43.62H0.600037V38.1H9.06V6.48004H0V0.960026H15V38.1H23.04ZM61.84 3.40804e-05C63.4769 -0.0419241 65.1051 0.251586 66.6243 0.862461C68.1436 1.47334 69.5217 2.38865 70.6739 3.5521C71.8261 4.71555 72.728 6.10251 73.3241 7.6276C73.9202 9.15268 74.1979 10.7836 74.14 12.42V31.98C74.14 39.18 68.98 44.46 61.84 44.46C54.7 44.46 49.6 39.18 49.6 31.98V12.42C49.5426 10.7888 49.8184 9.16296 50.4109 7.642C51.0033 6.12105 51.8999 4.73695 53.0456 3.57437C54.1913 2.4118 55.5622 1.49517 57.0743 0.880588C58.5865 0.266006 60.2081 -0.0336235 61.84 3.40804e-05ZM61.84 5.52005C58.12 5.52005 55.42 8.34005 55.42 12.42V23.1L68.26 14.4V12.4C68.26 8.35003 65.68 5.52005 61.84 5.52005ZM61.84 38.94C65.62 38.94 68.26 36.12 68.26 31.94V20.16L55.42 28.8601V31.98C55.42 36.12 58.06 38.94 61.84 38.94ZM97.84 3.40804e-05C99.4769 -0.0419241 101.105 0.251586 102.624 0.862461C104.144 1.47334 105.522 2.38865 106.674 3.5521C107.826 4.71555 108.728 6.10251 109.324 7.6276C109.92 9.15268 110.198 10.7836 110.14 12.42V31.98C110.14 39.18 104.98 44.46 97.84 44.46C90.7 44.46 85.6 39.18 85.6 31.98V12.42C85.5426 10.7897 85.8182 9.16465 86.41 7.64438C87.0019 6.12411 87.8975 4.7405 89.0421 3.57807C90.1868 2.41563 91.5565 1.49881 93.0674 0.88361C94.5784 0.268412 96.1989 -0.0322453 97.83 3.40804e-05H97.84ZM97.84 5.52005C94.12 5.52005 91.42 8.34005 91.42 12.42V23.1L104.26 14.4V12.4C104.26 8.35003 101.67 5.52005 97.83 5.52005H97.84ZM97.84 38.94C101.62 38.94 104.26 36.12 104.26 31.94V20.16L91.42 28.8601V31.98C91.41 36.12 94.05 38.94 97.83 38.94H97.84ZM133.84 3.40804e-05C135.477 -0.0419241 137.105 0.251586 138.624 0.862461C140.144 1.47334 141.522 2.38865 142.674 3.5521C143.826 4.71555 144.728 6.10251 145.324 7.6276C145.92 9.15268 146.198 10.7836 146.14 12.42V31.98C146.14 39.18 140.98 44.46 133.84 44.46C126.7 44.46 121.6 39.18 121.6 31.98V12.42C121.543 10.7914 121.818 9.16807 122.408 7.64917C122.999 6.13027 123.893 4.7476 125.035 3.58545C126.178 2.42331 127.545 1.50605 129.054 0.889621C130.562 0.273196 132.181 -0.0294933 133.81 3.40804e-05H133.84ZM133.84 5.52005C130.12 5.52005 127.42 8.34005 127.42 12.42V23.1L140.26 14.4V12.4C140.26 8.35003 137.65 5.52005 133.81 5.52005H133.84ZM133.84 38.94C137.62 38.94 140.26 36.12 140.26 31.94V20.16L127.42 28.8601V31.98C127.39 36.12 130.03 38.94 133.81 38.94H133.84Z" fill="white"/>
</svg>
