<svg width="106" height="91" viewBox="0 0 106 91" fill="none" xmlns="http://www.w3.org/2000/svg">
<path d="M0.0146484 86.959C0.01698 87.878 0.38312 88.7588 1.03298 89.4086C1.68283 90.0585 2.56354 90.4246 3.48257 90.4269H20.1421C21.0611 90.4246 21.9419 90.0585 22.5917 89.4086C23.2416 88.7588 23.6077 87.878 23.61 86.959V53.5693C23.61 51.6616 24.7258 49.0092 26.0888 47.6815L46.6461 27.5599C48.0091 26.2234 50.6851 25.1341 52.5928 25.1341H78.3401C80.2478 25.1341 82.912 24.0301 84.2633 22.6818L104.503 2.44251C105.851 1.09126 105.386 -0.00976562 103.484 -0.00976562H49.8814C47.9738 -0.00976562 45.3125 1.09421 43.9671 2.4484L2.4581 44.1753C1.11568 45.5265 0.0146484 48.1937 0.0146484 50.1013V86.959Z" fill="#E6E6E6"/>
</svg>
