<svg width="54" height="48" viewBox="0 0 54 48" fill="none" xmlns="http://www.w3.org/2000/svg">
<path d="M27.3552 46.3887L7.20197 26.5621C4.56584 23.8403 3.06326 20.2139 3 16.4208C3.10786 12.7084 4.60836 9.17335 7.20197 6.52109C8.52444 5.19316 10.0951 4.1396 11.8242 3.42081C13.5533 2.70201 15.4068 2.33203 17.2786 2.33203C19.1505 2.33203 21.0039 2.70201 22.733 3.42081C24.4621 4.1396 26.0328 5.19316 27.3552 6.52109C28.6553 5.19725 30.2051 4.14589 31.9144 3.42826C33.6237 2.71063 35.4583 2.34104 37.3115 2.34104C39.1646 2.34104 40.9992 2.71063 42.7085 3.42826C44.4178 4.14589 45.9676 5.19725 47.2676 6.52109C48.5929 7.80569 49.6476 9.34366 50.3694 11.0441C51.0911 12.7446 51.4652 14.5729 51.4696 16.4208C51.4869 18.3078 51.1236 20.1789 50.4016 21.9216C49.6795 23.6643 48.6135 25.2427 47.2676 26.5621" stroke="#E21A1A" stroke-width="4.5" stroke-linejoin="bevel"/>
</svg>
