<svg width="68" height="38" viewBox="0 0 68 38" fill="none" xmlns="http://www.w3.org/2000/svg">
<path d="M25.4994 31.7973V36.4444H1.3184V31.7973H10.4348V5.17737H0.671875V0.530255H16.8357V31.7973H25.4994ZM53.937 14.9599C61.3076 14.9599 67.0619 19.6575 67.0619 25.9716C67.0619 32.2856 61.049 37.1348 53.0533 37.1348C51.1751 37.1654 49.3087 36.8964 47.5681 36.3443C45.8274 35.7922 44.2492 34.9685 42.93 33.9236C41.6107 32.8788 40.578 31.6347 39.8952 30.2674C39.2123 28.9001 38.8936 27.4384 38.9585 25.9716C39.0294 23.6913 39.8535 21.4641 41.3508 19.506L55.7042 0.462891H63.0749L51.868 15.103C52.5473 15.0092 53.2365 14.9669 53.9262 14.9767L53.937 14.9599ZM52.9671 32.4876C57.5576 32.4876 60.7257 29.861 60.7257 25.9716C60.7257 22.0821 57.4283 19.4555 52.9671 19.4555C48.5059 19.4555 45.2085 22.0821 45.2085 25.9716C45.2085 29.861 48.4412 32.5045 52.9671 32.5045V32.4876Z" fill="black"/>
</svg>
