<svg width="97" height="46" viewBox="0 0 97 46" fill="none" xmlns="http://www.w3.org/2000/svg">
<path d="M23.04 38.9797V44.4997H0.599976V38.9797H9.06V7.35968H0V1.83966H15V38.9797H23.04ZM54.71 22.4797C56.3446 23.6124 57.6757 25.1297 58.586 26.8979C59.4963 28.6662 59.9578 30.6311 59.93 32.6197C59.93 39.9997 54.41 45.3397 46.93 45.3397C39.45 45.3397 33.93 39.9397 33.93 32.6197C33.9009 30.6726 34.3641 28.7497 35.2767 27.0295C36.1892 25.3093 37.5215 23.8474 39.15 22.7797C37.6541 21.675 36.4474 20.2251 35.6326 18.5536C34.8177 16.8822 34.4189 15.0385 34.47 13.1797C34.47 9.86448 35.787 6.68506 38.1312 4.34085C40.4754 1.99665 43.6548 0.679688 46.97 0.679688C50.2852 0.679688 53.4646 1.99665 55.8088 4.34085C58.153 6.68506 59.47 9.86448 59.47 13.1797C59.4753 14.997 59.046 16.7893 58.218 18.407C57.39 20.0248 56.1872 21.4212 54.71 22.4797ZM46.91 6.47968C46.0185 6.45541 45.1317 6.6151 44.3047 6.94882C43.4777 7.28254 42.7284 7.78313 42.1035 8.41931C41.4786 9.05549 40.9914 9.81362 40.6725 10.6464C40.3536 11.4792 40.2098 12.3688 40.25 13.2597C40.1985 14.1595 40.331 15.0604 40.6395 15.9072C40.9479 16.7541 41.4258 17.5292 42.0439 18.1852C42.662 18.8411 43.4073 19.3642 44.2344 19.7224C45.0614 20.0805 45.9528 20.2663 46.8541 20.2683C47.7554 20.2704 48.6477 20.0886 49.4764 19.7342C50.3051 19.3798 51.0528 18.8601 51.6738 18.207C52.2949 17.5538 52.7762 16.7809 53.0885 15.9355C53.4008 15.09 53.5374 14.1897 53.49 13.2897C53.5297 12.4061 53.3881 11.5238 53.074 10.6971C52.7598 9.87033 52.2798 9.11664 51.6633 8.48242C51.0469 7.8482 50.3072 7.34686 49.4897 7.00931C48.6722 6.67176 47.7943 6.50514 46.91 6.51968V6.47968ZM46.91 39.7797C48.3424 39.7975 49.7477 39.3894 50.9478 38.6072C52.1479 37.825 53.0885 36.7039 53.6505 35.3863C54.2124 34.0686 54.3702 32.6137 54.1039 31.2061C53.8376 29.7986 53.1592 28.5019 52.1547 27.4806C51.1503 26.4593 49.8651 25.7594 48.4622 25.4696C47.0593 25.1799 45.602 25.3135 44.2751 25.8533C42.9483 26.3932 41.8117 27.3151 41.0096 28.5019C40.2075 29.6888 39.7761 31.0872 39.77 32.5197C39.7152 33.4791 39.861 34.4394 40.1983 35.3392C40.5356 36.239 41.0569 37.0586 41.7288 37.7455C42.4007 38.4325 43.2086 38.9718 44.1007 39.3289C44.9928 39.6861 45.9496 39.8532 46.91 39.8197V39.7797ZM85.49 16.2897C91.85 16.2897 96.59 21.2897 96.59 28.2297V33.3897C96.6494 34.9634 96.3852 36.5327 95.8138 38.0002C95.2424 39.4678 94.376 40.8024 93.268 41.9217C92.16 43.0409 90.8342 43.9208 89.3724 44.507C87.9107 45.0932 86.3443 45.3732 84.77 45.3297C78.05 45.3297 73.07 40.5897 73.07 34.1097V33.4497H78.95V34.1097C78.9223 34.8759 79.0549 35.6395 79.3392 36.3516C79.6235 37.0637 80.0532 37.7086 80.601 38.2451C81.1488 38.7816 81.8026 39.1979 82.5204 39.4673C83.2383 39.7367 84.0045 39.8533 84.77 39.8097C88.25 39.8097 90.71 37.2297 90.71 33.3897V28.2897C90.71 24.4497 88.19 21.8697 84.65 21.8697C83.8958 21.849 83.1454 21.9823 82.4445 22.2614C81.7436 22.5406 81.107 22.9597 80.5735 23.4931C80.04 24.0266 79.6209 24.6633 79.3417 25.3642C79.0626 26.0651 78.9293 26.8155 78.95 27.5697V27.7497H73.49V1.77966H95.39V7.28967H79.39V18.4497C81.0607 16.9564 83.2519 16.1805 85.49 16.2897Z" fill="white"/>
</svg>
