<svg width="57" height="49" viewBox="0 0 57 49" fill="none" xmlns="http://www.w3.org/2000/svg">
<path d="M27.2752 46.9443L4.70575 27.1178C1.75358 24.396 0.0708474 20.7696 0 16.9765C0.120795 13.2641 1.80119 9.72901 4.70575 7.07675C6.18678 5.74882 7.94579 4.69527 9.88215 3.97647C11.8185 3.25767 13.8942 2.8877 15.9905 2.8877C18.0868 2.8877 20.1624 3.25767 22.0988 3.97647C24.0352 4.69527 25.7942 5.74882 27.2752 7.07675C28.7311 5.75291 30.4667 4.70155 32.381 3.98392C34.2952 3.26629 36.3498 2.8967 38.4251 2.8967C40.5004 2.8967 42.555 3.26629 44.4693 3.98392C46.3835 4.70155 48.1191 5.75291 49.575 7.07675C51.0591 8.36136 52.2403 9.89932 53.0485 11.5998C53.8568 13.3002 54.2758 15.1285 54.2807 16.9765C54.3001 18.8635 53.8932 20.7346 53.0846 22.4773C52.276 24.22 51.0822 25.7984 49.575 27.1178" stroke="#E21A1A" stroke-width="4.5" stroke-linejoin="bevel"/>
</svg>
