<svg width="94" height="102" viewBox="0 0 94 102" fill="none" xmlns="http://www.w3.org/2000/svg">
<path d="M93.7569 63.1741C93.7427 62.6301 93.4597 62.1114 92.967 61.7267L64.0641 39.1512C63.5604 38.7563 63.2777 38.2216 63.2777 37.6641C63.2777 37.1067 63.5604 36.572 64.0641 36.1771L67.8709 33.2031C68.3745 32.8082 68.6574 32.2735 68.6574 31.716C68.6574 31.1586 68.3745 30.6239 67.8709 30.229L35.5609 4.98916C33.9315 3.71551 31.9969 2.70515 29.8675 2.01583C27.7381 1.3265 25.4558 0.971685 23.1508 0.97168H8.22191C1.29359 0.97168 -2.17687 7.51215 2.718 11.3413L23.7726 27.8051L29.0418 31.9044L50.2392 48.4848C55.2832 52.4056 58.5284 58.5098 58.5284 64.0564V99.1801C58.5282 99.5965 58.6862 100.004 58.9823 100.35C59.2784 100.696 59.6994 100.966 60.192 101.125C60.6845 101.284 61.2264 101.326 61.7492 101.244C62.2719 101.163 62.7518 100.962 63.1283 100.667L69.4729 95.7103C69.977 95.3154 70.2609 94.781 70.2628 94.2233V79.6008C70.2624 79.3243 70.3318 79.0504 70.467 78.7949C70.6021 78.5393 70.8004 78.307 71.0505 78.1114C71.3007 77.9157 71.5977 77.7605 71.9247 77.6546C72.2517 77.5487 72.6021 77.4942 72.9561 77.4942H91.07C91.7849 77.4936 92.4702 77.2714 92.9757 76.8765C93.4812 76.4816 93.7656 75.9461 93.7665 75.3876V64.0762C93.7665 63.7615 93.7632 63.4691 93.7569 63.1741ZM60.9267 38.6233C60.9289 38.6331 60.9289 38.6432 60.9267 38.653C60.9242 38.6432 60.9242 38.6331 60.9267 38.6233Z" fill="#E6E6E6"/>
</svg>
