<svg width="1240" height="561" viewBox="0 0 1240 561" fill="none" xmlns="http://www.w3.org/2000/svg">
<path fill-rule="evenodd" clip-rule="evenodd" d="M1239.61 246.326V219.559L1185.28 177.08C1184.42 176.402 1183.22 175.474 1182.09 174.595C1181.32 173.999 1180.59 173.425 1180 172.968L1154.62 153.141C1153.15 152.011 1151.97 149.768 1151.97 148.14V73.1465C1151.97 71.5653 1150.79 69.3199 1149.35 68.1897L1142.05 62.4771C1140.58 61.3444 1137.71 60.42 1135.67 60.42H1126.5C1124.42 60.42 1121.49 61.2726 1119.9 62.2961L1109.63 69.0621C1108.08 70.108 1106.81 69.6123 1106.81 68.0262V42.9201C1106.81 41.329 1107.97 39.0886 1109.42 37.9386L1122.92 27.3931C1124.39 26.2629 1125.58 24.0175 1125.58 22.409V15.9355C1125.58 14.327 1124.39 12.0866 1122.92 10.9564L1110.59 1.29075C1109.88 0.747655 1108.93 0.443359 1107.94 0.443359C1106.94 0.443359 1105.99 0.747655 1105.28 1.29075L1023.69 65.0298C1023 65.5848 1022.62 66.328 1022.62 67.1017C1022.62 67.8754 1023 68.6186 1023.69 69.1736L1034.31 77.4341C1035 77.983 1035.39 78.724 1035.39 79.4961C1035.39 80.2682 1035 81.0092 1034.31 81.5581L1010.72 99.9775C1009.27 101.105 1006.4 102.032 1004.34 102.032H968.623C966.593 102.032 963.725 102.984 962.279 104.119L941.119 120.6L940.43 121.14C938.999 122.263 937.1 123.752 935.863 124.744L918.621 138.199C917.175 139.329 914.301 140.241 912.242 140.241H894.426C893.431 140.245 892.479 140.557 891.778 141.108C891.077 141.66 890.684 142.406 890.686 143.183V165.736C890.686 167.357 889.474 169.603 888.027 170.733L871.214 183.868C869.711 185.045 868.546 187.271 868.546 188.872V199.926C868.546 201.529 867.36 201.916 865.91 200.786L834.254 176.061C832.804 174.914 829.914 173.982 827.858 173.982H817.304C816.81 173.982 816.321 174.058 815.864 174.206C815.408 174.354 814.993 174.571 814.645 174.844C814.296 175.118 814.021 175.443 813.833 175.8C813.646 176.158 813.551 176.54 813.554 176.926V190.805C813.546 191.581 813.147 192.322 812.443 192.869C811.739 193.416 810.788 193.725 809.795 193.727H757.715L745.067 203.616L723.264 220.647C721.824 221.775 720.609 221.386 720.609 219.792V198.669C720.609 197.076 721.824 194.833 723.264 193.678L744.947 176.738C745.643 176.188 746.034 175.445 746.034 174.671C746.034 173.897 745.643 173.154 744.947 172.604L730.671 161.439C729.238 160.306 726.373 159.384 724.327 159.384H694.218C692.191 159.384 689.32 160.306 687.874 161.439L669.982 175.422C668.529 176.552 665.664 177.476 663.593 177.476H627.917C626.923 177.483 625.973 177.797 625.274 178.35C624.575 178.903 624.185 179.649 624.19 180.426V208.268C624.189 208.653 624.092 209.034 623.903 209.39C623.714 209.745 623.437 210.068 623.088 210.34C622.74 210.612 622.326 210.828 621.87 210.975C621.415 211.122 620.926 211.198 620.434 211.197H597.479C596.49 211.199 595.542 211.507 594.844 212.054C594.146 212.601 593.754 213.342 593.755 214.114V227.498C593.755 229.081 594.932 231.319 596.384 232.454L603.63 238.14C605.077 239.275 604.607 240.197 602.539 240.197H583.943C581.871 240.197 578.997 239.275 577.55 238.14L570.184 232.385C568.703 231.23 565.835 230.306 563.795 230.306H551.741C550.745 230.308 549.792 230.619 549.089 231.169C548.387 231.72 547.992 232.465 547.991 233.243V279.227C547.991 280.845 546.804 283.083 545.351 284.215L516.369 306.865C514.923 307.998 512.045 308.922 510.006 308.922H490.337C488.291 308.922 487.796 307.998 489.243 306.865L525.658 278.419C527.104 277.261 528.288 275.021 528.288 273.427V221.847C528.288 220.246 527.104 219.859 525.658 220.989L518.32 226.719C516.864 227.86 514.507 229.703 513.057 230.834L500.815 240.403C499.363 241.52 498.176 243.766 498.176 245.359V266.398C498.176 267.997 496.993 270.235 495.546 271.37L490.398 275.39C490.052 275.664 489.64 275.882 489.185 276.031C488.731 276.18 488.243 276.256 487.75 276.256C487.258 276.256 486.77 276.18 486.315 276.031C485.861 275.882 485.449 275.664 485.103 275.39L452.178 249.669C450.731 248.537 447.86 247.612 445.789 247.612H410.471C408.444 247.612 405.58 246.685 404.127 245.558L388.538 233.379C387.091 232.219 384.189 231.3 382.149 231.3H301.255C299.215 231.3 296.351 232.219 294.866 233.379L287.03 239.503C285.549 240.655 282.684 241.582 280.645 241.582H261.972C260.981 241.576 260.034 241.263 259.337 240.713C258.64 240.163 258.249 239.42 258.251 238.645V216.836C258.251 215.242 259.434 212.997 260.881 211.864L288.712 190.116C290.196 188.994 291.376 189.36 291.376 190.976V203.921C291.376 205.505 292.563 207.747 294.006 208.878L304.364 216.969C305.814 218.102 308.678 219.046 310.75 219.046H323.674C324.669 219.046 325.624 218.738 326.327 218.188C327.031 217.638 327.427 216.892 327.427 216.114V170.2C327.427 168.604 326.24 166.363 324.765 165.208L302.315 147.664C301.612 147.123 300.666 146.82 299.68 146.82C298.694 146.82 297.748 147.123 297.045 147.664L224.2 204.575C222.75 205.71 221.563 207.951 221.563 209.567V217.25C221.563 217.633 221.465 218.013 221.276 218.367C221.087 218.721 220.81 219.043 220.462 219.313C220.114 219.584 219.7 219.798 219.246 219.944C218.792 220.089 218.305 220.163 217.814 220.162H165.395C163.364 220.162 160.5 221.111 159.05 222.241L116.614 255.38C115.161 256.51 113.981 258.75 113.981 260.368V282.426C113.981 284.012 112.801 286.25 111.348 287.383L89.1005 304.786C87.6254 305.904 86.4389 308.149 86.4389 309.743V361.367C86.4389 362.986 87.6254 365.229 89.1005 366.359L101.758 376.272C102.275 376.676 102.684 377.154 102.964 377.681C103.244 378.208 103.388 378.773 103.388 379.343C103.388 379.914 103.244 380.478 102.964 381.005C102.684 381.532 102.275 382.011 101.758 382.414L95.3309 387.438C94.8153 387.841 94.203 388.16 93.5292 388.379C92.8553 388.597 92.133 388.709 91.4036 388.709H69.4449C68.7144 388.709 67.9911 388.597 67.3161 388.379C66.6412 388.161 66.0279 387.841 65.5112 387.438L60.3847 383.435C59.3417 382.621 57.9282 382.164 56.4542 382.164H45.7667C45.0356 382.164 44.3116 382.051 43.636 381.833C42.9605 381.614 42.3468 381.294 41.8299 380.89L33.3091 374.233C32.2664 373.419 30.8527 372.961 29.3786 372.961H21.064C20.3335 372.961 19.6102 373.073 18.9352 373.291C18.2603 373.51 17.647 373.829 17.1303 374.233L11.2235 378.843C10.182 379.66 9.59596 380.765 9.59289 381.918V384.62C9.59369 385.771 10.1789 386.876 11.2203 387.69L22.8024 396.746C23.3985 397.235 23.7263 397.887 23.7158 398.562C23.7052 399.238 23.3572 399.883 22.746 400.36C22.1348 400.838 21.3088 401.11 20.4445 401.118C19.5802 401.126 18.746 400.87 18.1201 400.405L10.8682 394.736C10.5202 394.465 10.0484 394.312 9.55641 394.312C9.06447 394.312 8.59265 394.465 8.24466 394.736L6.77271 395.886C5.98508 396.571 5.52155 397.446 5.45937 398.365V405.237C5.39493 406.156 4.9317 407.03 4.14604 407.716L1.45909 409.815C0.675579 410.501 0.21556 411.375 0.155273 412.293L0.183828 417.592C0.187999 417.977 0.386163 418.345 0.735347 418.616C1.08453 418.888 1.55658 419.041 2.04914 419.042H11.2488C12.4243 419.092 13.543 419.453 14.4211 420.066L34.3528 435.637C34.7008 435.909 35.1726 436.061 35.6645 436.061C36.1565 436.061 36.6283 435.909 36.9763 435.637L42.3089 431.474C42.6561 431.201 42.8509 430.832 42.8509 430.447C42.8509 430.063 42.6561 429.694 42.3089 429.421L29.3025 419.26C28.9563 418.988 28.762 418.619 28.762 418.235C28.762 417.851 28.9563 417.483 29.3025 417.21L32.8174 414.464C33.2559 414.121 33.5023 413.656 33.5023 413.171C33.5023 412.686 33.2559 412.22 32.8174 411.877L25.7431 406.35C25.1222 405.865 24.7732 405.208 24.7729 404.522C24.7726 403.836 25.121 403.178 25.7415 402.693C26.362 402.208 27.2038 401.936 28.0816 401.935C28.9594 401.935 29.8014 402.207 30.4223 402.692L37.8011 408.462L39.5395 409.82C40.5812 410.634 41.9938 411.091 43.4668 411.091H66.06C71.0183 411.091 73.4991 415.783 69.9937 418.509L56.9364 428.71L51.1438 433.236C50.6199 433.644 49.9104 433.873 49.1706 433.873C48.4309 433.873 47.7213 433.644 47.1974 433.236L46.6899 432.839C46.3706 432.591 45.9383 432.451 45.4876 432.451C45.0369 432.451 44.6046 432.591 44.2853 432.839L38.7337 437.176C38.4156 437.426 38.237 437.763 38.237 438.116C38.237 438.468 38.4156 438.805 38.7337 439.055L40.4658 440.408C42.233 441.788 43.2268 443.66 43.2289 445.613V486.107C43.2289 487.701 44.4153 489.968 45.8651 491.098L69.5908 509.632C70.0927 510.025 70.7076 510.503 71.3572 511.009C72.5839 511.964 73.9344 513.015 74.8822 513.768L86.4579 522.797C87.9109 523.927 89.1195 526.168 89.1195 527.788V529.261C89.1212 530.033 89.5147 530.774 90.2138 531.321C90.913 531.868 91.8609 532.176 92.8502 532.178H115.056C116.045 532.175 116.991 531.867 117.689 531.32C118.387 530.773 118.78 530.033 118.781 529.261V510.269C118.781 508.653 119.992 506.407 121.442 505.277L133.776 495.612C135.254 494.479 138.122 493.552 140.162 493.552H145.809C146.298 493.552 146.783 493.477 147.235 493.331C147.688 493.185 148.099 492.971 148.445 492.701C148.792 492.431 149.067 492.11 149.254 491.757C149.442 491.403 149.539 491.025 149.539 490.642V452.584C149.539 450.986 150.754 448.748 152.198 447.615L161.715 440.15C163.149 439.018 166.019 438.093 168.059 438.093H222.572C224.647 438.093 227.511 439.018 228.961 440.15L257.154 462.208C258.072 462.929 259.375 463.938 260.574 464.866C261.263 465.4 261.917 465.907 262.445 466.317L278.836 479.12C279.844 479.93 281.313 481.07 282.601 482.07C283.162 482.505 283.689 482.914 284.128 483.257L299.095 494.977C300.548 496.107 303.412 497.032 305.484 497.032H323.677C324.668 497.032 325.62 496.726 326.324 496.18C327.028 495.635 327.428 494.894 327.436 494.12V462.55C327.436 460.937 328.619 458.694 330.066 457.561L333.939 454.532C335.392 453.405 338.257 452.478 340.328 452.478H443.923C444.906 452.483 445.847 452.791 446.542 453.334C447.236 453.877 447.629 454.612 447.635 455.38V470.61C447.635 472.228 448.815 474.466 450.268 475.601L462.278 484.997C463.728 486.122 466.593 487.049 468.667 487.049H496.171C498.195 487.049 501.06 487.973 502.516 489.103L557.013 531.67C557.736 532.238 558.69 532.984 559.648 533.732C560.605 534.479 561.565 535.23 562.301 535.808L572.154 543.506C572.945 544.12 574.016 544.957 575.062 545.775C575.934 546.456 576.788 547.124 577.449 547.638L591.708 558.778C593.184 559.931 596.058 560.855 598.097 560.855H634.275C636.343 560.855 639.217 559.931 640.663 558.778L666.867 538.327L666.845 538.304L689.58 556.114H724.708C727.063 556.114 729.323 555.383 730.988 554.081C732.654 552.78 733.59 551.015 733.59 549.174V519.967C733.587 519.19 733.978 518.443 734.679 517.891C735.38 517.34 736.332 517.028 737.327 517.025H774.418C776.476 517.025 779.341 517.964 780.797 519.112L802.391 535.982C804.056 537.283 806.314 538.014 808.669 538.014H877.438C879.513 538.014 882.384 537.06 883.83 535.927L909.374 515.974L910.83 514.836C912.277 513.706 915.151 512.777 917.232 512.777H956.251C958.607 512.777 960.866 512.046 962.532 510.744C964.198 509.443 965.134 507.678 965.134 505.837V460.825C965.134 459.246 963.973 457.001 962.523 455.868L957.764 452.151C957.419 451.881 957.145 451.561 956.958 451.209C956.771 450.856 956.675 450.479 956.675 450.097C956.675 449.716 956.771 449.338 956.958 448.986C957.145 448.634 957.419 448.314 957.764 448.044L975.529 434.12C976.976 432.993 979.85 432.063 981.934 432.063H1013.66C1015.72 432.063 1018.59 432.993 1020.03 434.12L1053.23 460.074C1054.7 461.204 1057.57 462.129 1059.63 462.129H1101.98C1104.05 462.129 1106.93 461.204 1108.37 460.074L1126.14 446.195C1127.58 445.035 1130.44 444.111 1132.51 444.111H1141.46C1143.51 444.111 1146.38 445.035 1147.83 446.195L1153.42 450.567C1154.89 451.707 1156.06 453.95 1156.06 455.546V477.356C1156.06 478.984 1154.89 481.23 1153.42 482.355L1145.97 488.162C1144.52 489.309 1143.35 491.552 1143.35 493.141V504.541C1143.35 506.169 1144.52 508.407 1145.97 509.54L1154.28 515.999C1155.72 517.139 1158.59 518.063 1160.62 518.063H1174.6C1176.65 518.063 1179.5 517.139 1180.94 515.999L1189.64 509.233C1191.11 508.1 1192.3 505.852 1192.3 504.251V415.909C1192.3 414.326 1191.11 412.083 1189.64 410.953L1168.47 394.397L1163.17 390.275L1115.39 352.919C1113.94 351.786 1111.07 350.862 1108.99 350.862H1100.8C1099.52 350.862 1098.28 351.261 1097.37 351.972C1096.46 352.683 1095.95 353.648 1095.95 354.654V367.046C1095.95 367.822 1095.56 368.567 1094.86 369.118C1094.16 369.668 1093.2 369.979 1092.21 369.982H1070.47C1069.98 369.981 1069.49 369.904 1069.04 369.755C1068.58 369.607 1068.17 369.39 1067.82 369.117C1067.48 368.844 1067.2 368.521 1067.02 368.166C1066.83 367.81 1066.74 367.43 1066.74 367.046V257.253C1066.74 255.645 1067.95 253.404 1069.39 252.274L1089.11 236.859C1089.96 236.189 1091.11 235.289 1092.22 234.428C1093.01 233.811 1093.78 233.214 1094.39 232.735L1111.09 219.673C1112.54 218.528 1113.75 216.29 1113.75 214.704V208.63C1113.75 207.004 1112.54 204.759 1111.09 203.631L1089.76 186.971C1089.06 186.419 1088.67 185.675 1088.67 184.9C1088.67 184.126 1089.06 183.382 1089.76 182.83L1104.88 171.035C1106.33 169.885 1107.52 167.64 1107.52 166.051V143.837H1128.91C1129.9 143.84 1130.85 144.149 1131.55 144.696C1132.25 145.243 1132.64 145.984 1132.64 146.757V171.541C1132.64 173.162 1133.84 175.41 1135.29 176.537L1148.59 186.919C1150.05 188.067 1151.25 190.302 1151.25 191.903V216.219C1151.25 217.825 1152.41 220.067 1153.85 221.215L1187.14 247.188C1188.59 248.348 1191.46 249.26 1193.54 249.26H1235.87C1236.36 249.26 1236.85 249.184 1237.31 249.036C1237.76 248.888 1238.17 248.672 1238.52 248.399C1238.87 248.127 1239.14 247.803 1239.33 247.448C1239.52 247.092 1239.61 246.711 1239.61 246.326ZM834.002 483.749V452.522C834 452.086 833.833 451.66 833.522 451.298C833.211 450.936 832.77 450.655 832.254 450.489C831.738 450.323 831.171 450.28 830.624 450.366C830.077 450.451 829.574 450.662 829.18 450.97L819.72 458.358C819.191 458.773 818.893 459.334 818.892 459.92V483.891C818.893 484.476 818.596 485.037 818.068 485.452L797.308 501.671C796.913 501.978 796.644 502.37 796.534 502.797C796.424 503.224 796.479 503.667 796.69 504.07C796.902 504.472 797.262 504.817 797.724 505.061C798.186 505.304 798.73 505.435 799.288 505.438L806.187 505.472C806.562 505.475 806.933 505.419 807.279 505.307C807.626 505.196 807.94 505.033 808.205 504.825L833.174 485.311C833.704 484.896 834.002 484.335 834.002 483.749Z" fill="#E6E6E6"/>
</svg>
