<svg width="1151" height="666" viewBox="0 0 1151 666" fill="none" xmlns="http://www.w3.org/2000/svg">
<path fill-rule="evenodd" clip-rule="evenodd" d="M1150.22 292.067V260.273L1099.79 209.815C1099 209.01 1097.89 207.908 1096.84 206.864C1096.12 206.155 1095.44 205.474 1094.9 204.931L1071.35 181.379C1069.98 180.037 1068.89 177.373 1068.89 175.439V86.3591C1068.89 84.4809 1067.79 81.8137 1066.45 80.4713L1059.68 73.6856C1058.32 72.3402 1055.65 71.2422 1053.76 71.2422H1045.24C1043.31 71.2422 1040.6 72.2549 1039.12 73.4707L1029.59 81.5076C1028.15 82.7499 1026.97 82.1611 1026.97 80.277V50.4553C1026.97 48.5653 1028.05 45.904 1029.4 44.538L1041.92 32.0117C1043.29 30.6693 1044.39 28.0021 1044.39 26.0915V18.4021C1044.39 16.4915 1043.29 13.8302 1041.92 12.4878L1030.48 1.00655C1029.82 0.361453 1028.94 0 1028.02 0C1027.1 0 1026.22 0.361453 1025.56 1.00655L949.844 76.7178C949.204 77.3771 948.846 78.2599 948.846 79.1789C948.846 80.0979 949.204 80.9808 949.844 81.64L959.692 91.4521C960.337 92.1041 960.698 92.9842 960.698 93.9014C960.698 94.8186 960.337 95.6987 959.692 96.3507L937.801 118.23C936.458 119.569 933.791 120.67 931.881 120.67H898.738C896.854 120.67 894.193 121.801 892.85 123.149L873.215 142.726L872.565 143.378C871.239 144.709 869.482 146.472 868.336 147.648L852.336 163.631C850.994 164.973 848.327 166.056 846.416 166.056H829.883C828.96 166.061 828.076 166.432 827.426 167.087C826.775 167.742 826.411 168.628 826.412 169.551V196.34C826.412 198.266 825.288 200.933 823.945 202.275L808.343 217.878C806.947 219.276 805.867 221.92 805.867 223.822V236.951C805.867 238.856 804.766 239.315 803.42 237.973L774.043 208.605C772.698 207.242 770.016 206.135 768.108 206.135H758.314C757.855 206.134 757.401 206.225 756.978 206.4C756.554 206.576 756.17 206.834 755.846 207.159C755.523 207.484 755.267 207.87 755.093 208.295C754.92 208.719 754.832 209.174 754.834 209.632V226.118C754.827 227.039 754.456 227.92 753.803 228.57C753.15 229.22 752.267 229.586 751.346 229.589H703.016L691.278 241.335L671.045 261.565C669.708 262.905 668.581 262.443 668.581 260.55V235.459C668.581 233.566 669.708 230.902 671.045 229.53L691.167 209.408C691.813 208.755 692.176 207.872 692.176 206.953C692.176 206.034 691.813 205.152 691.167 204.498L677.919 191.236C676.588 189.89 673.93 188.795 672.031 188.795H644.091C642.209 188.795 639.545 189.89 638.203 191.236L621.599 207.845C620.251 209.188 617.592 210.286 615.67 210.286H582.563C581.64 210.293 580.758 210.666 580.11 211.323C579.462 211.98 579.1 212.866 579.104 213.789V246.861C579.104 247.318 579.013 247.771 578.838 248.193C578.662 248.616 578.405 248.999 578.082 249.322C577.758 249.646 577.374 249.902 576.951 250.076C576.529 250.251 576.076 250.341 575.618 250.34H554.316C553.399 250.342 552.519 250.708 551.871 251.357C551.223 252.007 550.859 252.888 550.86 253.805V269.702C550.86 271.584 551.952 274.242 553.301 275.59L560.024 282.344C561.367 283.692 560.931 284.787 559.012 284.787H541.755C539.832 284.787 537.165 283.692 535.823 282.344L528.987 275.508C527.612 274.136 524.951 273.038 523.058 273.038H511.871C510.948 273.041 510.063 273.41 509.411 274.064C508.759 274.717 508.392 275.603 508.391 276.526V331.148C508.391 333.07 507.29 335.728 505.942 337.074L479.047 363.978C477.704 365.323 475.034 366.421 473.141 366.421H454.889C452.99 366.421 452.531 365.323 453.873 363.978L487.666 330.188C489.009 328.813 490.107 326.152 490.107 324.259V262.99C490.107 261.089 489.009 260.629 487.666 261.972L480.857 268.778C479.506 270.132 477.319 272.322 475.973 273.665L464.613 285.031C463.264 286.359 462.163 289.026 462.163 290.919V315.91C462.163 317.809 461.065 320.467 459.723 321.815L454.945 326.59C454.624 326.916 454.242 327.175 453.82 327.352C453.398 327.528 452.945 327.619 452.488 327.619C452.031 327.619 451.578 327.528 451.156 327.352C450.735 327.175 450.352 326.916 450.031 326.59L419.477 296.039C418.134 294.693 415.47 293.595 413.548 293.595H380.773C378.892 293.595 376.234 292.494 374.885 291.155L360.419 276.688C359.077 275.311 356.383 274.218 354.49 274.218H279.421C277.528 274.218 274.869 275.311 273.491 276.688L266.22 283.963C264.845 285.332 262.187 286.433 260.294 286.433H242.966C242.047 286.425 241.167 286.054 240.521 285.4C239.874 284.747 239.511 283.864 239.513 282.944V257.038C239.513 255.145 240.611 252.478 241.953 251.132L267.78 225.3C269.158 223.966 270.253 224.402 270.253 226.321V241.697C270.253 243.578 271.354 246.242 272.694 247.585L282.306 257.197C283.651 258.542 286.309 259.664 288.232 259.664H300.225C301.149 259.664 302.035 259.297 302.688 258.644C303.341 257.991 303.708 257.105 303.708 256.181V201.642C303.708 199.746 302.607 197.085 301.238 195.713L280.404 174.873C279.752 174.231 278.874 173.871 277.959 173.871C277.044 173.871 276.166 174.231 275.514 174.873L207.913 242.474C206.568 243.823 205.467 246.484 205.467 248.403V257.529C205.466 257.985 205.375 258.436 205.2 258.857C205.024 259.278 204.768 259.66 204.445 259.981C204.121 260.302 203.738 260.557 203.316 260.729C202.895 260.902 202.443 260.99 201.987 260.988H153.342C151.458 260.988 148.8 262.116 147.454 263.458L108.074 302.821C106.725 304.164 105.63 306.825 105.63 308.747V334.948C105.63 336.832 104.535 339.491 103.187 340.836L82.5411 361.508C81.1722 362.836 80.0712 365.503 80.0712 367.396V428.717C80.0712 430.64 81.1722 433.304 82.5411 434.646L94.2873 446.422C94.7667 446.901 95.1471 447.469 95.4066 448.095C95.6661 448.721 95.7996 449.392 95.7996 450.069C95.7996 450.747 95.6661 451.418 95.4066 452.044C95.1471 452.67 94.7667 453.238 94.2873 453.717L88.323 459.684C87.8445 460.163 87.2763 460.543 86.651 460.802C86.0256 461.061 85.3553 461.194 84.6784 461.194H64.3007C63.6229 461.195 62.9516 461.062 62.3253 460.802C61.6989 460.543 61.1298 460.163 60.6503 459.684L55.8929 454.93C54.925 453.963 53.6132 453.42 52.2454 453.42H42.3274C41.6489 453.42 40.977 453.286 40.3502 453.027C39.7233 452.767 39.1537 452.386 38.674 451.906L30.7667 443.999C29.7991 443.032 28.4872 442.489 27.1192 442.489H19.4033C18.7254 442.489 18.0542 442.622 17.4278 442.881C16.8015 443.14 16.2323 443.52 15.7528 443.999L10.2713 449.475C9.30482 450.445 8.76096 451.758 8.75811 453.128V456.337C8.75885 457.705 9.30195 459.017 10.2683 459.984L21.0165 470.741C21.5697 471.322 21.8739 472.096 21.8641 472.899C21.8544 473.701 21.5314 474.467 20.9642 475.034C20.397 475.602 19.6305 475.925 18.8284 475.934C18.0263 475.944 17.2522 475.64 16.6713 475.087L9.94156 468.354C9.61863 468.031 9.18078 467.85 8.72426 467.85C8.26773 467.85 7.82989 468.031 7.50695 468.354L6.14098 469.72C5.41006 470.533 4.9799 471.572 4.92221 472.664V480.827C4.8624 481.919 4.43252 482.957 3.70343 483.771L1.20994 486.265C0.482844 487.079 0.0559462 488.118 0 489.209L0.0264985 495.503C0.0303697 495.96 0.214265 496.397 0.538308 496.719C0.862351 497.042 1.30041 497.223 1.75751 497.225H10.2948C11.3857 497.284 12.4238 497.713 13.2387 498.441L31.7353 516.937C32.0582 517.26 32.496 517.441 32.9526 517.441C33.4091 517.441 33.8469 517.26 34.1699 516.937L39.1186 511.991C39.4407 511.668 39.6216 511.229 39.6216 510.773C39.6216 510.316 39.4407 509.878 39.1186 509.554L27.0486 497.484C26.7273 497.16 26.5471 496.723 26.5471 496.267C26.5471 495.811 26.7273 495.373 27.0486 495.049L30.3104 491.787C30.7174 491.38 30.946 490.827 30.946 490.251C30.946 489.675 30.7174 489.122 30.3104 488.714L23.7455 482.149C23.1693 481.573 22.8454 480.792 22.8452 479.978C22.8449 479.163 23.1682 478.382 23.744 477.805C24.3199 477.229 25.101 476.905 25.9156 476.905C26.7302 476.905 27.5116 477.228 28.0878 477.804L34.9353 484.657L36.5485 486.271C37.5153 487.237 38.8261 487.78 40.1931 487.781H61.1596C65.7609 487.781 68.063 493.354 64.81 496.592L52.6929 508.709L47.3173 514.085C46.8312 514.569 46.1727 514.841 45.4862 514.841C44.7998 514.841 44.1413 514.569 43.6551 514.085L43.1841 513.614C42.8878 513.318 42.4866 513.153 42.0684 513.153C41.6501 513.153 41.2489 513.318 40.9526 513.614L35.8008 518.765C35.5056 519.062 35.3399 519.463 35.3399 519.881C35.3399 520.299 35.5056 520.701 35.8008 520.997L37.4082 522.604C39.0482 524.244 39.9704 526.467 39.9723 528.786V576.887C39.9723 578.78 41.0733 581.473 42.4187 582.816L64.4361 604.83C64.9022 605.297 65.4732 605.866 66.0764 606.467C67.2145 607.601 68.4673 608.849 69.3466 609.744L80.0889 620.468C81.4372 621.811 82.5588 624.472 82.5588 626.397V628.146C82.5604 629.064 82.9255 629.944 83.5743 630.593C84.2232 631.243 85.1029 631.609 86.0208 631.611H106.628C107.545 631.608 108.424 631.242 109.072 630.592C109.719 629.943 110.084 629.063 110.084 628.146V605.587C110.084 603.667 111.209 601 112.554 599.658L124 588.177C125.372 586.831 128.033 585.73 129.926 585.73H135.166C135.621 585.731 136.07 585.642 136.49 585.468C136.91 585.295 137.292 585.04 137.613 584.719C137.935 584.398 138.19 584.017 138.364 583.598C138.538 583.178 138.628 582.728 138.628 582.274V537.068C138.628 535.169 139.756 532.51 141.095 531.165L149.927 522.298C151.258 520.953 153.922 519.855 155.815 519.855H206.403C208.328 519.855 210.987 520.953 212.332 522.298L238.494 548.499C239.349 549.357 240.56 550.558 241.675 551.663C242.312 552.294 242.917 552.894 243.405 553.38L258.616 568.588C259.551 569.549 260.913 570.903 262.108 572.089C262.629 572.607 263.119 573.094 263.526 573.501L277.416 587.423C278.764 588.765 281.422 589.864 283.345 589.864H300.228C301.148 589.864 302.031 589.5 302.684 588.852C303.338 588.204 303.709 587.325 303.717 586.404V548.905C303.717 546.989 304.815 544.324 306.157 542.979L309.752 539.382C311.1 538.042 313.758 536.941 315.681 536.941H411.817C412.729 536.947 413.602 537.312 414.246 537.958C414.891 538.603 415.256 539.476 415.261 540.388V558.479C415.261 560.401 416.356 563.059 417.704 564.408L428.85 575.568C430.195 576.904 432.854 578.005 434.779 578.005H460.303C462.181 578.005 464.839 579.104 466.191 580.446L516.764 631.008C517.435 631.683 518.32 632.569 519.209 633.457C520.097 634.345 520.988 635.237 521.671 635.924L530.815 645.068C531.419 645.668 532.2 646.448 532.998 647.247C533.978 648.227 534.986 649.235 535.728 649.975L548.961 663.208C550.33 664.577 552.997 665.675 554.89 665.675H588.463C590.382 665.675 593.049 664.577 594.392 663.208L618.708 638.915L618.688 638.888L639.786 660.043H672.384C674.571 660.043 676.667 659.175 678.213 657.629C679.759 656.083 680.627 653.987 680.627 651.8V617.106C680.624 616.183 680.988 615.297 681.638 614.641C682.288 613.986 683.172 613.616 684.095 613.612H718.515C720.426 613.612 723.084 614.728 724.435 616.091L744.475 636.13C746.02 637.675 748.116 638.543 750.301 638.544H814.119C816.044 638.544 818.708 637.411 820.051 636.065L843.755 612.364L845.106 611.013C846.449 609.67 849.116 608.566 851.047 608.566H887.257C889.443 608.566 891.54 607.698 893.086 606.152C894.631 604.606 895.5 602.509 895.5 600.323V546.856C895.5 544.981 894.422 542.314 893.077 540.968L888.661 536.552C888.341 536.232 888.086 535.852 887.913 535.434C887.739 535.015 887.65 534.566 887.65 534.113C887.65 533.66 887.739 533.212 887.913 532.793C888.086 532.375 888.341 531.995 888.661 531.674L905.147 515.136C906.489 513.796 909.157 512.692 911.091 512.692H940.53C942.44 512.692 945.108 513.796 946.444 515.136L977.252 545.964C978.618 547.307 981.285 548.405 983.196 548.405H1022.49C1024.42 548.405 1027.08 547.307 1028.43 545.964L1044.91 529.478C1046.25 528.1 1048.9 527.002 1050.83 527.002H1059.13C1061.04 527.002 1063.7 528.1 1065.05 529.478L1070.23 534.671C1071.59 536.025 1072.68 538.69 1072.68 540.586V566.492C1072.68 568.426 1071.59 571.093 1070.23 572.43L1063.31 579.327C1061.97 580.69 1060.88 583.355 1060.88 585.242V598.784C1060.88 600.718 1061.97 603.376 1063.31 604.721L1071.03 612.393C1072.36 613.747 1075.03 614.846 1076.91 614.846H1089.88C1091.78 614.846 1094.43 613.747 1095.77 612.393L1103.84 604.356C1105.21 603.011 1106.31 600.341 1106.31 598.439V493.504C1106.31 491.623 1105.21 488.958 1103.84 487.616L1084.2 467.951L1079.28 463.055L1034.94 418.682C1033.6 417.336 1030.93 416.238 1029 416.238H1021.4C1020.21 416.238 1019.06 416.713 1018.22 417.557C1017.37 418.402 1016.9 419.548 1016.9 420.742V435.462C1016.9 436.384 1016.53 437.269 1015.88 437.923C1015.23 438.577 1014.35 438.946 1013.43 438.95H993.249C992.793 438.948 992.342 438.857 991.921 438.68C991.5 438.504 991.118 438.246 990.797 437.922C990.476 437.598 990.222 437.214 990.049 436.792C989.876 436.37 989.788 435.918 989.79 435.462V305.047C989.79 303.136 990.912 300.475 992.254 299.133L1010.55 280.822C1011.34 280.025 1012.41 278.955 1013.44 277.932C1014.18 277.2 1014.89 276.491 1015.45 275.923L1030.95 260.409C1032.29 259.048 1033.42 256.39 1033.42 254.506V247.29C1033.42 245.359 1032.29 242.692 1030.95 241.353L1011.15 221.564C1010.51 220.907 1010.14 220.024 1010.14 219.104C1010.14 218.184 1010.51 217.301 1011.15 216.644L1025.18 202.634C1026.53 201.268 1027.64 198.601 1027.64 196.714V170.328H1047.49C1048.41 170.331 1049.28 170.698 1049.93 171.348C1050.58 171.998 1050.95 172.878 1050.95 173.796V203.235C1050.95 205.16 1052.06 207.83 1053.4 209.17L1065.75 221.502C1067.1 222.865 1068.21 225.52 1068.21 227.422V256.305C1068.21 258.212 1069.29 260.877 1070.63 262.24L1101.52 293.092C1102.87 294.469 1105.53 295.553 1107.46 295.553H1146.74C1147.2 295.552 1147.65 295.462 1148.08 295.286C1148.5 295.111 1148.88 294.854 1149.2 294.53C1149.53 294.206 1149.78 293.822 1149.95 293.4C1150.13 292.977 1150.22 292.524 1150.22 292.067ZM773.81 574.086V536.993C773.808 536.475 773.653 535.97 773.365 535.54C773.076 535.11 772.666 534.775 772.188 534.578C771.709 534.381 771.182 534.33 770.675 534.432C770.167 534.534 769.701 534.784 769.335 535.15L760.556 543.926C760.065 544.418 759.789 545.085 759.788 545.781V574.254C759.789 574.949 759.513 575.616 759.023 576.109L739.758 595.374C739.392 595.739 739.142 596.205 739.04 596.712C738.938 597.219 738.988 597.745 739.185 598.223C739.381 598.702 739.715 599.112 740.144 599.401C740.573 599.69 741.077 599.846 741.595 599.848L747.998 599.89C748.345 599.892 748.69 599.826 749.011 599.694C749.333 599.562 749.625 599.367 749.87 599.121L773.042 575.941C773.533 575.449 773.809 574.782 773.81 574.086Z" fill="#E6E6E6"/>
</svg>
