<svg width="82" height="26" viewBox="0 0 82 26" fill="none" xmlns="http://www.w3.org/2000/svg">
<path d="M13.5955 21.5982V24.6219H1.3033V21.5982H5.9375V4.27737H0.974609V1.25361H9.19132V21.5982H13.5955ZM34.8494 0.727744C35.7461 0.70476 36.6379 0.86554 37.4701 1.20017C38.3023 1.53479 39.0573 2.03618 39.6884 2.6735C40.3196 3.31081 40.8136 4.07057 41.1401 4.90598C41.4667 5.74139 41.6188 6.63479 41.5871 7.53119V18.2458C41.5871 22.1898 38.7605 25.0821 34.8494 25.0821C30.9382 25.0821 28.1446 22.1898 28.1446 18.2458V7.53119C28.1131 6.63762 28.2642 5.74702 28.5887 4.91387C28.9133 4.08072 29.4044 3.32254 30.032 2.6857C30.6596 2.04886 31.4105 1.54675 32.2388 1.2101C33.0672 0.873439 33.9555 0.709307 34.8494 0.727744ZM34.8494 3.75151C32.8116 3.75151 31.3326 5.29624 31.3326 7.53119V13.3815L38.3661 8.61579V7.52022C38.3661 5.30171 36.9529 3.75151 34.8494 3.75151ZM34.8494 22.0583C36.92 22.0583 38.3661 20.5136 38.3661 18.2239V11.771L31.3326 16.5367V18.2458C31.3326 20.5136 32.7788 22.0583 34.8494 22.0583ZM54.5695 0.727744C55.4662 0.70476 56.3581 0.86554 57.1903 1.20017C58.0225 1.53479 58.7774 2.03618 59.4085 2.6735C60.0397 3.31081 60.5337 4.07057 60.8603 4.90598C61.1868 5.74139 61.3389 6.63479 61.3072 7.53119V18.2458C61.3072 22.1898 58.4807 25.0821 54.5695 25.0821C50.6583 25.0821 47.8647 22.1898 47.8647 18.2458V7.53119C47.8332 6.63809 47.9842 5.74795 48.3084 4.91517C48.6326 4.0824 49.1232 3.32448 49.7502 2.68772C50.3772 2.05096 51.1275 1.54874 51.9552 1.21175C52.7829 0.874757 53.6705 0.710062 54.564 0.727744H54.5695ZM54.5695 3.75151C52.5318 3.75151 51.0527 5.29624 51.0527 7.53119V13.3815L58.0862 8.61579V7.52022C58.0862 5.30171 56.6675 3.75151 54.564 3.75151H54.5695ZM54.5695 22.0583C56.6401 22.0583 58.0862 20.5136 58.0862 18.2239V11.771L51.0527 16.5367V18.2458C51.0472 20.5136 52.4934 22.0583 54.564 22.0583H54.5695ZM74.2896 0.727744C75.1863 0.70476 76.0782 0.86554 76.9104 1.20017C77.7426 1.53479 78.4975 2.03618 79.1286 2.6735C79.7598 3.31081 80.2538 4.07057 80.5804 4.90598C80.9069 5.74139 81.059 6.63479 81.0273 7.53119V18.2458C81.0273 22.1898 78.2008 25.0821 74.2896 25.0821C70.3785 25.0821 67.5848 22.1898 67.5848 18.2458V7.53119C67.5534 6.63903 67.704 5.74982 68.0275 4.9178C68.3511 4.08577 68.8407 3.32837 69.4665 2.69177C70.0924 2.05517 70.8413 1.55271 71.6677 1.21504C72.4941 0.877377 73.3806 0.71157 74.2732 0.727744H74.2896ZM74.2896 3.75151C72.2519 3.75151 70.7728 5.29624 70.7728 7.53119V13.3815L77.8064 8.61579V7.52022C77.8064 5.30171 76.3766 3.75151 74.2732 3.75151H74.2896ZM74.2896 22.0583C76.3602 22.0583 77.8064 20.5136 77.8064 18.2239V11.771L70.7728 16.5367V18.2458C70.7564 20.5136 72.2026 22.0583 74.2732 22.0583H74.2896Z" fill="white"/>
</svg>
