<svg width="186" height="109" viewBox="0 0 186 109" fill="none" xmlns="http://www.w3.org/2000/svg">
<path d="M186.001 84.5695C171.327 82.0798 156.571 81.3159 141.977 82.3252C155.741 77.9383 169.204 72.3801 182.248 65.5624C167.483 66.1526 152.993 68.423 139.021 72.3702C151.484 65.2911 163.417 57.1427 174.69 47.8647C158.133 52.0309 142.394 58.3112 127.853 66.6456C140.186 55.616 151.512 43.362 161.622 29.8512C144.478 38.8976 129.003 50.3352 115.737 63.9718C126.26 48.4174 135.127 31.6756 142.047 13.7943C127.138 27.9034 114.762 44.0971 105.477 61.9836C111.704 43.09 115.775 23.4347 117.384 3.1735C107.046 21.0754 99.7841 40.2775 96.0277 60.2325C96.5881 40.1911 94.831 20.0325 90.4957 0C85.6514 20.5378 84.271 41.4571 86.6298 62.0681C81.2515 42.2983 73.5277 23.1111 63.2692 4.83594C64.6691 25.6949 69.4332 45.9178 77.6153 64.7866C66.7655 47.6077 53.8791 31.6454 38.8722 17.2602C46.3824 37.0444 56.9953 55.2112 70.5532 71.0282C54.9686 57.585 37.757 45.9394 18.9474 36.4722C31.7415 52.8985 46.942 66.9506 64.1958 78.0139C45.6652 69.8491 26.137 63.8035 5.74102 60.2171C22.6194 72.1646 41.087 81.1938 60.6401 86.8288C40.6931 84.3581 20.4075 84.1688 0.000732422 86.5406C15.7539 91.8619 31.9482 95.0788 48.2607 96.0498C32.3127 98.5507 16.5278 102.549 1.05047 108.172C11.3216 109.13 21.5694 109.256 31.7129 108.553H165.914L155.749 104.661C165.624 105.274 175.587 105.315 185.615 104.747C171.264 98.9332 156.423 94.9154 141.345 92.8272C156.317 91.4226 171.239 88.7087 186.001 84.5695Z" fill="black"/>
</svg>
