<svg width="74" height="43" viewBox="0 0 74 43" fill="none" xmlns="http://www.w3.org/2000/svg">
<path d="M73.9998 33.3623C68.1618 32.3801 62.2912 32.0787 56.4849 32.4769C61.9609 30.7463 67.3172 28.5536 72.5069 25.8641C66.6327 26.0969 60.8677 26.9926 55.3087 28.5497C60.2671 25.757 65.0148 22.5425 69.4999 18.8824C62.9124 20.526 56.651 23.0035 50.8657 26.2914C55.7724 21.9402 60.2784 17.1061 64.3008 11.7761C57.48 15.3449 51.3234 19.857 46.0453 25.2366C50.2319 19.1005 53.7596 12.4959 56.5126 5.44177C50.5811 11.0078 45.6576 17.3961 41.9635 24.4522C44.4406 16.9988 46.0605 9.24489 46.7005 1.25193C42.5875 8.31417 39.6985 15.8893 38.204 23.7614C38.427 15.8552 37.7279 7.90275 36.0031 0C34.0758 8.10208 33.5266 16.3546 34.4651 24.4856C32.3253 16.6865 29.2524 9.11722 25.1711 1.90775C25.728 10.1365 27.6234 18.1144 30.8787 25.558C26.5621 18.781 21.4352 12.484 15.4648 6.80905C18.4527 14.6139 22.675 21.7806 28.069 28.0203C21.8687 22.717 15.0211 18.1229 7.53769 14.3881C12.6278 20.8682 18.6753 26.4117 25.5397 30.7761C18.1673 27.5552 10.3981 25.1702 2.28353 23.7554C8.99858 28.4686 16.3459 32.0306 24.1251 34.2536C16.1892 33.2789 8.11856 33.2042 -0.000244141 34.1399C6.26714 36.2391 12.71 37.5082 19.2 37.8912C12.855 38.8778 6.57504 40.4552 0.417395 42.6734C4.50374 43.0514 8.58083 43.1011 12.6164 42.8236H66.0081L61.9643 41.2883C65.8929 41.5301 69.8567 41.5464 73.8463 41.3223C68.1369 39.0287 62.2323 37.4437 56.2334 36.6199C62.1902 36.0658 68.1267 34.9952 73.9998 33.3623Z" fill="#FA4616"/>
</svg>
