<svg width="254" height="153" viewBox="0 0 254 153" fill="none" xmlns="http://www.w3.org/2000/svg">
<path d="M46.032 163.21L82.3723 179.206C95.1313 184.821 105.994 194.007 113.652 205.655C133.726 236.189 173.754 246.778 206.491 230.544C229.459 219.153 244.973 196.44 247.012 170.884L252.762 98.8557C254.003 83.3023 251.234 67.6905 244.718 53.5131C223.896 8.20519 170.548 -11.9823 124.947 8.1909L120.543 10.1393C109.034 15.2306 96.4975 17.5705 83.927 16.9734L80.4729 16.8094C45.9889 15.1714 14.6824 36.8372 4.06606 69.6871C-7.99599 107.011 10.1316 147.409 46.032 163.21Z" fill="#EDF0FB"/>
</svg>
