<svg width="155" height="91" viewBox="0 0 155 91" fill="none" xmlns="http://www.w3.org/2000/svg">
<path d="M155 70.6039C142.772 68.5254 130.475 67.8876 118.313 68.7302C129.783 65.0677 141.003 60.4274 151.873 54.7356C139.569 55.2283 127.494 57.1238 115.85 60.4192C126.236 54.5091 136.18 47.7063 145.575 39.9604C131.776 43.4387 118.661 48.6818 106.544 55.6399C116.821 46.4317 126.259 36.2013 134.685 24.9216C120.398 32.4741 107.502 42.0229 96.4468 53.4077C105.216 40.4219 112.605 26.4448 118.371 11.5163C105.947 23.2955 95.6347 36.815 87.897 51.7478C93.0856 35.9742 96.4786 19.5648 97.8192 2.64943C89.2041 17.5951 83.1528 33.6262 80.0224 50.2858C80.4895 33.554 79.0252 16.7244 75.4125 0C71.3756 17.1463 70.2252 34.611 72.1909 51.8183C67.7089 35.3133 61.2725 19.2946 52.7237 4.03734C53.8903 21.4517 57.8604 38.335 64.6788 54.0879C55.6373 39.7459 44.8986 26.4196 32.3929 14.4099C38.6514 30.927 47.4955 46.0937 58.7937 59.2988C45.8066 48.0756 31.4636 38.3531 15.7889 30.4493C26.4507 44.163 39.1177 55.8945 53.4959 65.1309C38.0537 58.3144 21.7802 53.2671 4.78358 50.273C18.8489 60.2475 34.2386 67.7856 50.5328 72.4901C33.9103 70.4274 17.0056 70.2694 0 72.2495C13.1276 76.692 26.6229 79.3777 40.2167 80.1883C26.9266 82.2763 13.7726 85.6145 0.874784 90.3088C9.43403 91.1087 17.9739 91.2139 26.4268 90.6266H138.261L129.79 87.3775C138.019 87.8894 146.322 87.9238 154.679 87.4496C142.72 82.5956 130.352 79.2413 117.787 77.498C130.264 76.3253 142.698 74.0596 155 70.6039Z" fill="#FA4616"/>
</svg>
