<svg width="212" height="123" viewBox="0 0 212 123" fill="none" xmlns="http://www.w3.org/2000/svg">
<path d="M212 95.4317C195.275 92.6222 178.456 91.7601 161.822 92.8991C177.51 87.9487 192.855 81.6766 207.723 73.9833C190.894 74.6493 174.378 77.2113 158.452 81.6655C172.658 73.6771 186.259 64.4822 199.108 54.0124C180.236 58.7138 162.298 65.8007 145.724 75.2056C159.781 62.7593 172.69 48.9314 184.214 33.6853C164.673 43.8936 147.035 56.8002 131.914 72.1884C143.908 54.6362 154.014 35.744 161.901 15.566C144.908 31.4874 130.803 49.761 120.22 69.9448C127.317 48.6245 131.958 26.4447 133.791 3.5811C122.008 23.7824 113.731 45.4508 109.45 67.9688C110.089 45.3532 108.086 22.6055 103.145 0C97.6231 23.1757 96.0497 46.7819 98.7382 70.0401C92.6081 47.7311 83.8047 26.0795 72.1122 5.45706C73.7078 28.9952 79.1378 51.8155 88.4637 73.1078C76.0972 53.7225 61.4095 35.7099 44.3049 19.4771C52.8649 41.8024 64.9613 62.3025 80.4144 80.1511C62.6513 64.9813 43.0338 51.8399 21.5949 41.1567C36.1775 59.6929 53.5027 75.5497 73.1683 88.034C52.0474 78.8206 29.7895 71.9984 6.54245 67.9515C25.7802 81.4335 46.8293 91.6223 69.1156 97.9811C46.3803 95.1931 23.259 94.9795 -0.000244141 97.6559C17.955 103.661 36.413 107.291 55.0058 108.386C36.8284 111.209 18.8371 115.721 1.19624 122.066C12.9031 123.147 24.5834 123.289 36.1448 122.495H189.105L177.52 118.104C188.775 118.796 200.13 118.842 211.56 118.201C195.204 111.64 178.288 107.106 161.102 104.75C178.167 103.165 195.174 100.103 212 95.4317Z" fill="#FA4616"/>
</svg>
