<svg width="270" height="45" viewBox="0 0 270 45" fill="none" xmlns="http://www.w3.org/2000/svg">
<path d="M23.7066 38.183V43.703H1.27558V38.183H9.73216V6.60303H0.675781V1.08304H15.6698V38.223L23.7066 38.183ZM62.4811 0.0830422C64.1173 0.0410841 65.7448 0.334563 67.2635 0.945439C68.7821 1.55631 70.1597 2.47165 71.3114 3.63511C72.4632 4.79856 73.3647 6.18549 73.9606 7.71058C74.5564 9.23566 74.834 10.8666 74.7761 12.503V32.063C74.7761 39.263 69.6182 44.543 62.4811 44.543C55.3439 44.543 50.246 39.263 50.246 32.063V12.503C50.1885 10.8718 50.4643 9.24593 51.0565 7.72498C51.6487 6.20403 52.5449 4.81993 53.6902 3.65735C54.8354 2.49477 56.2058 1.57818 57.7173 0.963596C59.2288 0.349015 60.8498 0.0493847 62.4811 0.0830422ZM62.4811 5.60303C58.7626 5.60303 56.0637 8.42303 56.0637 12.503V23.183L68.8985 14.483V12.483C68.8985 8.42304 66.3495 5.60303 62.4811 5.60303ZM62.4811 39.023C66.2596 39.023 68.8985 36.203 68.8985 32.023V20.243L56.0637 28.943V32.063C56.0637 36.203 58.7026 39.023 62.4811 39.023ZM98.4667 0.0830422C100.103 0.0410841 101.73 0.334563 103.249 0.945439C104.768 1.55631 106.145 2.47165 107.297 3.63511C108.449 4.79856 109.35 6.18549 109.946 7.71058C110.542 9.23566 110.82 10.8666 110.762 12.503V32.063C110.762 39.263 105.604 44.543 98.4667 44.543C91.3295 44.543 86.2316 39.263 86.2316 32.063V12.503C86.1742 10.8726 86.4497 9.24766 87.0413 7.72739C87.6329 6.20712 88.5282 4.82348 89.6723 3.66105C90.8165 2.49861 92.1856 1.58178 93.696 0.966587C95.2064 0.35139 96.8262 0.0507629 98.4567 0.0830422H98.4667ZM98.4667 5.60303C94.7482 5.60303 92.0493 8.42303 92.0493 12.503V23.183L104.884 14.483V12.483C104.874 8.42304 102.335 5.60303 98.4567 5.60303H98.4667ZM98.4667 39.023C102.245 39.023 104.884 36.203 104.884 32.023V20.243L92.0493 28.943V32.063C92.0393 36.203 94.6782 39.023 98.4567 39.023H98.4667ZM134.452 0.0830422C136.089 0.0410841 137.716 0.334563 139.235 0.945439C140.753 1.55631 142.131 2.47165 143.283 3.63511C144.434 4.79856 145.336 6.18549 145.932 7.71058C146.528 9.23566 146.805 10.8666 146.747 12.503V32.063C146.747 39.263 141.589 44.543 134.452 44.543C127.315 44.543 122.217 39.263 122.217 32.063V12.503C122.16 10.8735 122.435 9.24936 123.026 7.72977C123.617 6.21019 124.511 4.82703 125.654 3.66474C126.798 2.50245 128.166 1.58542 129.675 0.969608C131.184 0.353797 132.803 0.0521396 134.432 0.0830422H134.452ZM134.452 5.60303C130.734 5.60303 128.035 8.42303 128.035 12.503V23.183L140.87 14.483V12.483C140.85 8.42304 138.321 5.60303 134.432 5.60303H134.452ZM134.452 39.023C138.231 39.023 140.87 36.203 140.87 32.023V20.243L128.035 28.943V32.063C128.015 36.203 130.654 39.023 134.432 39.023H134.452ZM185.432 0.0830422C187.068 0.0410841 188.696 0.334563 190.214 0.945439C191.733 1.55631 193.11 2.47165 194.262 3.63511C195.414 4.79856 196.316 6.18549 196.911 7.71058C197.507 9.23566 197.785 10.8666 197.727 12.503V32.063C197.727 39.263 192.569 44.543 185.432 44.543C178.295 44.543 173.197 39.263 173.197 32.063V12.503C173.14 10.8752 173.414 9.25278 174.004 7.73456C174.594 6.21634 175.486 4.83413 176.627 3.67212C177.768 2.51012 179.134 1.59266 180.641 0.97562C182.147 0.358582 183.764 0.0548886 185.392 0.0830422H185.432ZM185.432 5.60303C181.713 5.60303 179.014 8.42303 179.014 12.503V23.183L191.849 14.483V12.483C191.809 8.42304 189.23 5.60303 185.392 5.60303H185.432ZM185.432 39.023C189.21 39.023 191.849 36.203 191.849 32.023V20.243L179.014 28.943V32.063C178.974 36.203 181.613 39.023 185.392 39.023H185.432ZM221.418 0.0830422C223.054 0.0410841 224.681 0.334563 226.2 0.945439C227.719 1.55631 229.096 2.47165 230.248 3.63511C231.4 4.79856 232.301 6.18549 232.897 7.71058C233.493 9.23566 233.77 10.8666 233.713 12.503V32.063C233.713 39.263 228.555 44.543 221.418 44.543C214.28 44.543 209.182 39.263 209.182 32.063V12.503C209.125 10.8769 209.399 9.25618 209.988 7.73932C210.576 6.22247 211.467 4.84119 212.606 3.67948C213.745 2.51776 215.108 1.59986 216.612 0.981602C218.117 0.363339 219.731 0.0576316 221.358 0.0830422H221.418ZM221.418 5.60303C217.699 5.60303 215 8.42303 215 12.503V23.183L227.835 14.483V12.483C227.775 8.42304 225.196 5.60303 221.358 5.60303H221.418ZM221.418 39.023C225.196 39.023 227.835 36.203 227.835 32.023V20.243L215 28.943V32.063C214.94 36.203 217.579 39.023 221.358 39.023H221.418ZM257.403 0.0830422C259.039 0.0410841 260.667 0.334563 262.185 0.945439C263.704 1.55631 265.082 2.47165 266.233 3.63511C267.385 4.79856 268.287 6.18549 268.883 7.71058C269.478 9.23566 269.756 10.8666 269.698 12.503V32.063C269.698 39.263 264.54 44.543 257.403 44.543C250.266 44.543 245.168 39.263 245.168 32.063V12.503C245.111 10.8778 245.385 9.25788 245.973 7.7417C246.561 6.22553 247.45 4.84471 248.588 3.68314C249.726 2.52157 251.088 1.60347 252.591 0.984593C254.094 0.365719 255.708 0.0590009 257.333 0.0830422H257.403ZM257.403 5.60303C253.685 5.60303 250.986 8.42303 250.986 12.503V23.183L263.821 14.483V12.483C263.751 8.42304 261.172 5.60303 257.333 5.60303H257.403ZM257.403 39.023C261.182 39.023 263.821 36.203 263.821 32.023V20.243L250.986 28.943V32.063C250.916 36.203 253.555 39.023 257.333 39.023H257.403Z" fill="white"/>
</svg>
