<svg width="147" height="45" viewBox="0 0 147 45" fill="none" xmlns="http://www.w3.org/2000/svg">
<path d="M23.7379 38.183V43.703H1.30683V38.183H9.76341V6.56305H0.707031V1.04303H15.701V38.183H23.7379ZM62.5223 0.0830419C64.1586 0.0410837 65.7861 0.334593 67.3047 0.945469C68.8233 1.55634 70.2009 2.47165 71.3527 3.6351C72.5044 4.79856 73.4059 6.18552 74.0018 7.71061C74.5977 9.23569 74.8752 10.8666 74.8174 12.5031V32.0631C74.8174 39.2631 69.6595 44.543 62.5223 44.543C55.3852 44.543 50.2872 39.2631 50.2872 32.0631V12.5031C50.2298 10.8718 50.5056 9.24596 51.0978 7.72501C51.69 6.20406 52.5861 4.81996 53.7314 3.65738C54.8767 2.4948 56.247 1.57818 57.7585 0.963596C59.2701 0.349014 60.8911 0.0493843 62.5223 0.0830419ZM62.5223 5.60306C58.8038 5.60306 56.1049 8.42306 56.1049 12.5031V23.183L68.9397 14.483V12.483C68.9397 8.43304 66.3608 5.60306 62.5223 5.60306ZM62.5223 39.023C66.3008 39.023 68.9397 36.203 68.9397 32.023V20.243L56.1049 28.9431V32.0631C56.1049 36.2031 58.7438 39.023 62.5223 39.023ZM98.5079 0.0830419C100.144 0.0410837 101.772 0.334593 103.29 0.945469C104.809 1.55634 106.187 2.47165 107.338 3.6351C108.49 4.79856 109.392 6.18552 109.987 7.71061C110.583 9.23569 110.861 10.8666 110.803 12.5031V32.0631C110.803 39.2631 105.645 44.543 98.5079 44.543C91.3708 44.543 86.2728 39.2631 86.2728 32.0631V12.5031C86.2154 10.8727 86.4909 9.24766 87.0825 7.72739C87.6741 6.20712 88.5693 4.82351 89.7135 3.66108C90.8577 2.49864 92.2269 1.58181 93.7373 0.966617C95.2476 0.35142 96.8675 0.0507625 98.4979 0.0830419H98.5079ZM98.5079 5.60306C94.7894 5.60306 92.0905 8.42306 92.0905 12.5031V23.183L104.925 14.483V12.483C104.925 8.43304 102.336 5.60306 98.4979 5.60306H98.5079ZM98.5079 39.023C102.286 39.023 104.925 36.203 104.925 32.023V20.243L92.0905 28.9431V32.0631C92.0805 36.2031 94.7194 39.023 98.4979 39.023H98.5079ZM134.494 0.0830419C136.13 0.0410837 137.757 0.334593 139.276 0.945469C140.795 1.55634 142.172 2.47165 143.324 3.6351C144.476 4.79856 145.377 6.18552 145.973 7.71061C146.569 9.23569 146.846 10.8666 146.789 12.5031V32.0631C146.789 39.2631 141.631 44.543 134.494 44.543C127.356 44.543 122.258 39.2631 122.258 32.0631V12.5031C122.201 10.8744 122.476 9.25108 123.066 7.73218C123.657 6.21328 124.55 4.83061 125.692 3.66846C126.834 2.50631 128.201 1.58905 129.709 0.972629C131.217 0.356204 132.835 0.0535145 134.464 0.0830419H134.494ZM134.494 5.60306C130.775 5.60306 128.076 8.42306 128.076 12.5031V23.183L140.911 14.483V12.483C140.911 8.43304 138.302 5.60306 134.464 5.60306H134.494ZM134.494 39.023C138.272 39.023 140.911 36.203 140.911 32.023V20.243L128.076 28.9431V32.0631C128.046 36.2031 130.685 39.023 134.464 39.023H134.494Z" fill="white"/>
</svg>
