<svg width="255" height="131" viewBox="0 0 255 131" fill="none" xmlns="http://www.w3.org/2000/svg">
<path d="M139.511 12.4409L107.504 33.7804C96.2664 41.2727 83.102 45.3556 69.597 45.5373C34.1971 46.0136 4.68226 73.1831 0.874575 108.381C-1.79693 133.076 8.66526 157.586 28.4726 172.575L84.2981 214.818C96.3529 223.94 110.546 229.817 125.521 231.887C173.377 238.502 217.674 205.457 224.971 157.701L225.676 153.088C227.518 141.035 232.142 129.577 239.183 119.622L241.118 116.887C260.432 89.5791 259.058 52.7176 237.765 26.9228C213.573 -2.38468 171.131 -8.64031 139.511 12.4409Z" fill="#EDF0FB"/>
</svg>
