<svg width="228" height="143" viewBox="0 0 228 143" fill="none" xmlns="http://www.w3.org/2000/svg">
<path d="M4.9211 102.789L18.0816 140.249C22.7022 153.401 23.4212 167.609 20.1519 181.16C11.5822 216.682 31.2095 253.139 65.4343 265.942C89.4468 274.924 116.631 270.725 136.681 254.747L193.19 209.717C205.392 199.993 214.896 187.301 220.792 172.855C239.636 126.69 217.911 73.9483 172.019 54.4476L167.587 52.5641C156.005 47.6425 145.728 40.09 137.573 30.5055L135.332 27.8718C112.959 1.57928 75.7468 -6.46668 44.5107 8.23486C9.02103 24.9384 -8.0801 65.7818 4.9211 102.789Z" fill="#EDF0FB"/>
</svg>
