<svg width="271" height="154" viewBox="0 0 271 154" fill="none" xmlns="http://www.w3.org/2000/svg">
<path d="M22.4517 151.522C4.93161 151.522 0.84603 144.755 0.0454337 132.943C-0.162605 129.874 0.313847 126.629 1.93428 124.173C4.69876 119.983 9.78684 119.203 14.0998 117.424C20.8752 114.629 27.5612 108.538 30.4502 100.98C33.5763 92.802 33.7074 82.819 39.0804 76.353C46.5717 67.3381 59.9097 70.0199 69.2958 63.7523C77.0357 58.5841 80.7639 48.3576 85.258 39.4783C89.7521 30.599 97.0518 21.6804 105.971 22.6323C109.476 23.0063 112.735 24.9101 116.222 25.456C133.295 28.1282 143.982 -0.747983 161.201 0.0148584C166.981 0.270948 172.516 4.33884 175.13 10.252C177.424 15.4415 177.702 21.9924 181.409 25.9665C188.239 33.2875 199.676 25.8583 208.597 29.0748C213.588 30.8743 217.404 36.3413 217.84 42.3155C218.548 52.023 211.285 62.2278 215.407 70.7477C221.045 82.4013 239.964 74.9123 246.124 86.2139C250.72 94.6471 243.91 106.076 246.809 115.447C248.609 121.264 253.666 124.769 258.4 127.711C263.134 130.654 268.25 133.921 270.367 139.596C272.483 145.271 269.05 154 263.664 154L22.4517 151.522Z" fill="#16B1F2"/>
</svg>
