<svg width="270" height="45" viewBox="0 0 270 45" fill="none" xmlns="http://www.w3.org/2000/svg">
<path d="M23.04 38.1V43.62H0.600037V38.1H9.06V6.52002H0V1.00003H15V38.14L23.04 38.1ZM61.83 3.44245e-05C63.4669 -0.0419237 65.0951 0.251556 66.6143 0.862431C68.1335 1.47331 69.5117 2.38865 70.6639 3.5521C71.8161 4.71555 72.718 6.10248 73.3141 7.62757C73.9102 9.15265 74.1879 10.7836 74.13 12.42V31.98C74.13 39.18 68.97 44.46 61.83 44.46C54.69 44.46 49.59 39.18 49.59 31.98V12.42C49.5326 10.7888 49.8084 9.16293 50.4009 7.64197C50.9933 6.12102 51.8899 4.73692 53.0356 3.57434C54.1813 2.41177 55.5522 1.49517 57.0643 0.880589C58.5765 0.266007 60.1981 -0.0336231 61.83 3.44245e-05ZM61.83 5.52002C58.11 5.52002 55.41 8.34002 55.41 12.42V23.1L68.25 14.4V12.4C68.25 8.34003 65.7 5.52002 61.83 5.52002ZM61.83 38.94C65.61 38.94 68.25 36.12 68.25 31.94V20.16L55.41 28.86V31.98C55.41 36.12 58.05 38.94 61.83 38.94ZM97.83 3.44245e-05C99.4669 -0.0419237 101.095 0.251556 102.614 0.862431C104.134 1.47331 105.512 2.38865 106.664 3.5521C107.816 4.71555 108.718 6.10248 109.314 7.62757C109.91 9.15265 110.188 10.7836 110.13 12.42V31.98C110.13 39.18 104.97 44.46 97.83 44.46C90.69 44.46 85.59 39.18 85.59 31.98V12.42C85.5326 10.7896 85.8082 9.16465 86.4 7.64438C86.9919 6.12411 87.8875 4.74047 89.0322 3.57804C90.1768 2.4156 91.5465 1.49878 93.0574 0.883579C94.5684 0.268382 96.1889 -0.0322449 97.82 3.44245e-05H97.83ZM97.83 5.52002C94.11 5.52002 91.41 8.34002 91.41 12.42V23.1L104.25 14.4V12.4C104.24 8.34003 101.7 5.52002 97.82 5.52002H97.83ZM97.83 38.94C101.61 38.94 104.25 36.12 104.25 31.94V20.16L91.41 28.86V31.98C91.4 36.12 94.04 38.94 97.82 38.94H97.83ZM133.83 3.44245e-05C135.467 -0.0419237 137.095 0.251556 138.614 0.862431C140.134 1.47331 141.512 2.38865 142.664 3.5521C143.816 4.71555 144.718 6.10248 145.314 7.62757C145.91 9.15265 146.188 10.7836 146.13 12.42V31.98C146.13 39.18 140.97 44.46 133.83 44.46C126.69 44.46 121.59 39.18 121.59 31.98V12.42C121.533 10.7905 121.808 9.16635 122.399 7.64676C122.99 6.12718 123.885 4.74402 125.029 3.58173C126.172 2.41944 127.541 1.50241 129.051 0.886601C130.56 0.270789 132.18 -0.0308682 133.81 3.44245e-05H133.83ZM133.83 5.52002C130.11 5.52002 127.41 8.34002 127.41 12.42V23.1L140.25 14.4V12.4C140.23 8.34003 137.7 5.52002 133.81 5.52002H133.83ZM133.83 38.94C137.61 38.94 140.25 36.12 140.25 31.94V20.16L127.41 28.86V31.98C127.39 36.12 130.03 38.94 133.81 38.94H133.83ZM184.83 3.44245e-05C186.467 -0.0419237 188.095 0.251556 189.614 0.862431C191.134 1.47331 192.512 2.38865 193.664 3.5521C194.816 4.71555 195.718 6.10248 196.314 7.62757C196.91 9.15265 197.188 10.7836 197.13 12.42V31.98C197.13 39.18 191.97 44.46 184.83 44.46C177.69 44.46 172.59 39.18 172.59 31.98V12.42C172.533 10.7922 172.808 9.16977 173.398 7.65155C173.988 6.13334 174.88 4.75112 176.022 3.58912C177.163 2.42711 178.529 1.50965 180.037 0.892613C181.544 0.275574 183.161 -0.0281193 184.79 3.44245e-05H184.83ZM184.83 5.52002C181.11 5.52002 178.41 8.34002 178.41 12.42V23.1L191.25 14.4V12.4C191.21 8.34003 188.63 5.52002 184.79 5.52002H184.83ZM184.83 38.94C188.61 38.94 191.25 36.12 191.25 31.94V20.16L178.41 28.86V31.98C178.37 36.12 181.01 38.94 184.79 38.94H184.83ZM220.83 3.44245e-05C222.467 -0.0419237 224.095 0.251556 225.614 0.862431C227.134 1.47331 228.512 2.38865 229.664 3.5521C230.816 4.71555 231.718 6.10248 232.314 7.62757C232.91 9.15265 233.188 10.7836 233.13 12.42V31.98C233.13 39.18 227.97 44.46 220.83 44.46C213.69 44.46 208.59 39.18 208.59 31.98V12.42C208.533 10.7939 208.807 9.17317 209.396 7.65631C209.985 6.13946 210.876 4.75819 212.015 3.59647C213.154 2.43475 214.518 1.51686 216.023 0.898594C217.528 0.280332 219.143 -0.0253762 220.77 3.44245e-05H220.83ZM220.83 5.52002C217.11 5.52002 214.41 8.34002 214.41 12.42V23.1L227.25 14.4V12.4C227.19 8.34003 224.61 5.52002 220.77 5.52002H220.83ZM220.83 38.94C224.61 38.94 227.25 36.12 227.25 31.94V20.16L214.41 28.86V31.98C214.35 36.12 216.99 38.94 220.77 38.94H220.83ZM256.83 3.44245e-05C258.467 -0.0419237 260.095 0.251556 261.614 0.862431C263.134 1.47331 264.512 2.38865 265.664 3.5521C266.816 4.71555 267.718 6.10248 268.314 7.62757C268.91 9.15265 269.188 10.7836 269.13 12.42V31.98C269.13 39.18 263.97 44.46 256.83 44.46C249.69 44.46 244.59 39.18 244.59 31.98V12.42C244.533 10.7948 244.807 9.17487 245.395 7.6587C245.983 6.14252 246.873 4.7617 248.012 3.60013C249.15 2.43856 250.512 1.52046 252.016 0.901585C253.52 0.282711 255.134 -0.0240069 256.76 3.44245e-05H256.83ZM256.83 5.52002C253.11 5.52002 250.41 8.34002 250.41 12.42V23.1L263.25 14.4V12.4C263.18 8.34003 260.6 5.52002 256.76 5.52002H256.83ZM256.83 38.94C260.61 38.94 263.25 36.12 263.25 31.94V20.16L250.41 28.86V31.98C250.34 36.12 252.98 38.94 256.76 38.94H256.83Z" fill="white"/>
</svg>
