<svg width="87" height="120" viewBox="0 0 87 120" fill="none" xmlns="http://www.w3.org/2000/svg">
<path d="M86.8467 74.6302C86.8336 73.984 86.571 73.3679 86.1137 72.911L59.2918 46.095C58.8244 45.6259 58.562 44.9908 58.562 44.3286C58.562 43.6665 58.8244 43.0313 59.2918 42.5623L62.8245 39.0296C63.2919 38.5606 63.5544 37.9254 63.5544 37.2633C63.5544 36.6011 63.2919 35.9659 62.8245 35.4969L32.8409 5.51623C31.3288 4.00336 29.5334 2.80322 27.5574 1.98441C25.5814 1.1656 23.4633 0.744146 21.3243 0.744141H7.4703C1.04082 0.744141 -2.17977 8.51312 2.36267 13.0615L21.9013 32.6178L26.7912 37.487L46.4623 57.1817C51.1431 61.839 54.1547 69.0898 54.1547 75.6782V117.399C54.1545 117.894 54.3011 118.377 54.5759 118.789C54.8507 119.2 55.2414 119.521 55.6985 119.71C56.1555 119.899 56.6585 119.948 57.1435 119.851C57.6286 119.754 58.074 119.516 58.4234 119.166L64.3112 113.278C64.7789 112.809 65.0424 112.174 65.0442 111.511V94.1424C65.0438 93.8139 65.1082 93.4886 65.2337 93.185C65.3591 92.8814 65.5431 92.6056 65.7752 92.3732C66.0074 92.1408 66.283 91.9564 66.5865 91.8306C66.8899 91.7048 67.2151 91.6401 67.5436 91.6401H84.3533C85.0167 91.6393 85.6527 91.3754 86.1218 90.9063C86.5909 90.4372 86.8548 89.8012 86.8556 89.1378V75.7018C86.8556 75.3279 86.8526 74.9806 86.8467 74.6302ZM56.3803 45.4679C56.3824 45.4796 56.3824 45.4916 56.3803 45.5032C56.378 45.4916 56.378 45.4796 56.3803 45.4679Z" fill="#E6E6E6"/>
</svg>
