<svg width="62" height="44" viewBox="0 0 62 44" fill="none" xmlns="http://www.w3.org/2000/svg">
<path d="M23.04 37.3684V42.8885H0.599976V37.3684H9.06V5.74844H0V0.228455H15V37.3684H23.04ZM49.43 17.3684C56.27 17.3684 61.61 22.9485 61.61 30.4485C61.61 37.9485 56.03 43.7085 48.61 43.7085C46.867 43.7449 45.1349 43.4254 43.5197 42.7695C41.9044 42.1137 40.4398 41.1353 39.2155 39.8942C37.9912 38.6531 37.0329 37.1753 36.3992 35.5511C35.7655 33.927 35.4698 32.1908 35.53 30.4485C35.5958 27.7399 36.3605 25.0944 37.75 22.7685L51.07 0.148438H57.91L47.51 17.5385C48.1404 17.427 48.78 17.3768 49.42 17.3885L49.43 17.3684ZM48.53 38.1884C52.79 38.1884 55.73 35.0685 55.73 30.4485C55.73 25.8285 52.67 22.7085 48.53 22.7085C44.39 22.7085 41.33 25.8285 41.33 30.4485C41.33 35.0685 44.33 38.2085 48.53 38.2085V38.1884Z" fill="black"/>
</svg>
