<svg width="291" height="55" viewBox="0 0 291 55" fill="none" xmlns="http://www.w3.org/2000/svg">
<g clip-path="url(#clip0_705_14540)">
<path d="M256.858 19.6839L255.286 35.3161H259.411L260.913 19.6839H256.858ZM256.858 19.6839L255.286 35.3161H259.411L260.913 19.6839H256.858ZM256.858 19.6839L255.286 35.3161H259.411L260.913 19.6839H256.858ZM256.858 19.6839L255.286 35.3161H259.411L260.913 19.6839H256.858ZM256.858 19.6839L255.286 35.3161H259.411L260.913 19.6839H256.858ZM256.858 19.6839L255.286 35.3161H259.411L260.913 19.6839H256.858ZM256.858 19.6839L255.286 35.3161H259.411L260.913 19.6839H256.858ZM256.858 19.6839L255.286 35.3161H259.411L260.913 19.6839H256.858ZM256.858 19.6839L255.286 35.3161H259.411L260.913 19.6839H256.858ZM256.858 19.6839L255.286 35.3161H259.411L260.913 19.6839H256.858ZM5.48677 0L0 55H285.994L291 0H5.48677ZM52.3448 26.9205L37.8068 35.3161H51.4837L50.6226 44.2862H11.6945L12.6056 35.3161L34.8531 23.7557L35.2836 19.7242H31.2286L30.8882 23.0804H13.8671L15.0987 10.7541H54.0369L52.3448 26.9205ZM98.0814 44.2762L99.0826 33.8244L93.6058 44.2762H86.2267L82.4119 34.1974L81.4107 44.2762H63.9792L67.2732 10.7138H84.7148L91.5132 28.9866L101.385 10.7138H118.767L115.473 44.2762H98.0814ZM156.383 23.7557L155.633 31.2342H136.769L136.379 35.2657H155.252L154.381 44.2762H118.807L122.141 10.7138H157.725L156.824 19.6839H137.911L137.53 23.7154L156.383 23.7557ZM197.785 25.2675H180.353L180.924 19.704H176.829L175.327 35.3363H179.332L179.953 29.3898H197.434L195.432 44.2762H157.725L161.059 10.7037H199.216L197.785 25.2675ZM229.404 19.704L226.991 44.2762H205.885L208.318 19.6738H201.659L202.561 10.7037H237.003L236.122 19.6738L229.404 19.704ZM275.981 44.2762H269.974H236.993L240.327 10.7037H279.245L275.981 44.2762ZM260.913 19.6839H256.908L255.336 35.3161H259.461L260.913 19.6839ZM256.908 19.6839L255.336 35.3161H259.461L260.963 19.6839H256.908ZM256.908 19.6839L255.336 35.3161H259.461L260.963 19.6839H256.908ZM256.908 19.6839L255.336 35.3161H259.461L260.963 19.6839H256.908ZM256.908 19.6839L255.336 35.3161H259.461L260.963 19.6839H256.908ZM256.908 19.6839L255.336 35.3161H259.461L260.963 19.6839H256.908ZM256.908 19.6839L255.336 35.3161H259.461L260.963 19.6839H256.908ZM256.908 19.6839L255.336 35.3161H259.461L260.963 19.6839H256.908ZM256.908 19.6839L255.336 35.3161H259.461L260.963 19.6839H256.908ZM256.908 19.6839L255.336 35.3161H259.461L260.963 19.6839H256.908ZM256.908 19.6839L255.336 35.3161H259.461L260.963 19.6839H256.908Z" fill="white"/>
</g>
<defs>
<clipPath id="clip0_705_14540">
<rect width="291" height="55" fill="white"/>
</clipPath>
</defs>
</svg>
