<svg width="272" height="46" viewBox="0 0 272 46" fill="none" xmlns="http://www.w3.org/2000/svg">
<path d="M20.8203 22.7678C22.455 23.9005 23.7861 25.4178 24.6964 27.186C25.6066 28.9543 26.0682 30.9192 26.0404 32.9078C26.0404 40.2878 20.5204 45.6277 13.0404 45.6277C5.56035 45.6277 0.0403548 40.2278 0.0403548 32.9078C0.0112432 30.9607 0.474413 29.0378 1.38697 27.3176C2.29953 25.5973 3.63188 24.1355 5.26033 23.0677C3.7645 21.963 2.55778 20.5132 1.74293 18.8417C0.928078 17.1702 0.529232 15.3266 0.580333 13.4678C0.580333 10.1526 1.89726 6.97311 4.24147 4.62891C6.58567 2.2847 9.76513 0.967773 13.0803 0.967773C16.3955 0.967773 19.5749 2.2847 21.9191 4.62891C24.2633 6.97311 25.5803 10.1526 25.5803 13.4678C25.5856 15.2851 25.1564 17.0774 24.3284 18.6951C23.5004 20.3129 22.2976 21.7092 20.8203 22.7678ZM13.0203 6.76776C12.1289 6.7435 11.242 6.90322 10.415 7.23694C9.58808 7.57066 8.83874 8.07122 8.21382 8.7074C7.5889 9.34358 7.10181 10.1017 6.78291 10.9345C6.46401 11.7673 6.32012 12.6569 6.3603 13.5478C6.3603 15.3062 7.05883 16.9925 8.3022 18.2359C9.54556 19.4793 11.2319 20.1777 12.9903 20.1777C14.7487 20.1777 16.4351 19.4793 17.6785 18.2359C18.9218 16.9925 19.6203 15.3062 19.6203 13.5478C19.6615 12.6617 19.5204 11.7766 19.2057 10.9473C18.891 10.118 18.4093 9.3621 17.7906 8.7265C17.1719 8.0909 16.4293 7.58913 15.6087 7.2522C14.7882 6.91527 13.9072 6.75038 13.0203 6.76776ZM13.0203 40.0677C14.4527 40.0856 15.8581 39.6775 17.0582 38.8953C18.2583 38.1131 19.1989 36.9921 19.7608 35.6744C20.3227 34.3567 20.4805 32.9018 20.2142 31.4943C19.9479 30.0867 19.2695 28.7901 18.2651 27.7687C17.2606 26.7474 15.9754 26.0475 14.5725 25.7578C13.1696 25.468 11.7123 25.6016 10.3854 26.1414C9.05859 26.6813 7.92204 27.6032 7.11994 28.79C6.31785 29.9769 5.88638 31.3753 5.88032 32.8077C5.8255 33.7671 5.97139 34.7274 6.30867 35.6273C6.64594 36.5271 7.16719 37.3466 7.83912 38.0336C8.51105 38.7206 9.31888 39.2599 10.211 39.6171C11.1031 39.9742 12.06 40.1413 13.0203 40.1078V40.0677ZM51.5903 16.5478C57.9503 16.5478 62.6903 21.5477 62.6903 28.4877V33.6478C62.7552 35.2231 62.4958 36.795 61.9282 38.2659C61.3605 39.7368 60.4967 41.0753 59.3903 42.1986C58.2839 43.3219 56.9585 44.2059 55.4963 44.7958C54.0342 45.3857 52.4664 45.6688 50.8903 45.6277C44.1703 45.6277 39.1903 40.8878 39.1903 34.4078V33.7678H45.0703V34.4277C45.0426 35.194 45.1752 35.9576 45.4595 36.6697C45.7438 37.3818 46.1736 38.0267 46.7214 38.5632C47.2692 39.0997 47.9229 39.516 48.6408 39.7854C49.3586 40.0548 50.1248 40.1714 50.8903 40.1277C54.3703 40.1277 56.8303 37.5478 56.8303 33.7078V28.5478C56.8303 24.7078 54.3103 22.1277 50.7703 22.1277C50.0162 22.1071 49.2657 22.2404 48.5648 22.5195C47.8639 22.7987 47.2273 23.2178 46.6938 23.7512C46.1603 24.2847 45.7412 24.9214 45.4621 25.6223C45.183 26.3232 45.0497 27.0736 45.0703 27.8278V28.0078H39.5903V2.06775H61.4903V7.58777H45.4903V18.7678C47.1579 17.2673 49.3495 16.4841 51.5903 16.5878V16.5478ZM99.8903 1.16779C101.527 1.12583 103.155 1.41928 104.675 2.03015C106.194 2.64103 107.572 3.5564 108.724 4.71985C109.876 5.8833 110.778 7.27021 111.374 8.79529C111.97 10.3204 112.248 11.9514 112.19 13.5878V33.1478C112.19 40.3478 107.03 45.6277 99.8903 45.6277C92.7503 45.6277 87.6503 40.3478 87.6503 33.1478V13.5878C87.5929 11.9565 87.8687 10.3307 88.4612 8.80975C89.0536 7.2888 89.9502 5.90464 91.0959 4.74207C92.2416 3.57949 93.6125 2.66292 95.1246 2.04834C96.6368 1.43376 98.2584 1.13413 99.8903 1.16779ZM99.8903 6.68774C96.1703 6.68774 93.4703 9.50777 93.4703 13.5878V24.2678L106.31 15.5677V13.5677C106.34 9.50775 103.76 6.68774 99.8903 6.68774ZM99.8903 40.1078C103.67 40.1078 106.31 37.2878 106.31 33.1078V21.3278L93.4703 30.0278V33.1478C93.5003 37.2878 96.1403 40.1078 99.8903 40.1078ZM135.89 1.16779C137.527 1.12583 139.155 1.41928 140.675 2.03015C142.194 2.64103 143.572 3.5564 144.724 4.71985C145.876 5.8833 146.778 7.27021 147.374 8.79529C147.971 10.3204 148.248 11.9514 148.19 13.5878V33.1478C148.19 40.3478 143.03 45.6277 135.89 45.6277C128.75 45.6277 123.65 40.3478 123.65 33.1478V13.5878C123.593 11.9565 123.869 10.3307 124.461 8.80975C125.054 7.2888 125.95 5.90464 127.096 4.74207C128.242 3.57949 129.613 2.66292 131.125 2.04834C132.637 1.43376 134.258 1.13413 135.89 1.16779ZM135.89 6.68774C132.17 6.68774 129.47 9.50777 129.47 13.5878V24.2678L142.31 15.5677V13.5677C142.33 9.50775 139.75 6.68774 135.89 6.68774ZM135.89 40.1078C139.67 40.1078 142.31 37.2878 142.31 33.1078V21.3278L129.47 30.0278V33.1478C129.49 37.2878 132.13 40.1078 135.89 40.1078ZM171.89 1.16779C173.527 1.12583 175.155 1.41928 176.675 2.03015C178.194 2.64103 179.572 3.5564 180.724 4.71985C181.876 5.8833 182.778 7.27021 183.374 8.79529C183.971 10.3204 184.248 11.9514 184.19 13.5878V33.1478C184.19 40.3478 179.03 45.6277 171.89 45.6277C164.75 45.6277 159.65 40.3478 159.65 33.1478V13.5878C159.593 11.9565 159.869 10.3307 160.461 8.80975C161.054 7.2888 161.95 5.90464 163.096 4.74207C164.242 3.57949 165.613 2.66292 167.125 2.04834C168.637 1.43376 170.258 1.13413 171.89 1.16779ZM171.89 6.68774C168.17 6.68774 165.47 9.50777 165.47 13.5878V24.2678L178.31 15.5677V13.5677C178.32 9.50775 175.74 6.68774 171.89 6.68774ZM171.89 40.1078C175.67 40.1078 178.31 37.2878 178.31 33.1078V21.3278L165.47 30.0278V33.1478C165.48 37.2878 168.12 40.1078 171.89 40.1078ZM230.89 44.7678L221.11 24.9678L217.42 30.7678V44.7678H211.48V2.12775H217.42V21.7678L230.32 2.08777H237.22L224.98 20.1478L237.76 44.7678H230.89ZM266.7 2.16779H271.98V44.7678H266.22V14.1277L259.44 29.1277H258.3L251.58 14.2477V44.7678H245.89V2.16779H251.17L258.97 19.5078L266.7 2.16779Z" fill="black"/>
</svg>
