<svg width="114" height="77" viewBox="0 0 114 77" fill="none" xmlns="http://www.w3.org/2000/svg">
<path d="M0.213867 74.0855C0.21638 74.8592 0.610927 75.6007 1.3112 76.1478C2.01148 76.6949 2.96052 77.0031 3.95086 77.0051H21.903C22.8933 77.0031 23.8424 76.6949 24.5426 76.1478C25.2429 75.6007 25.6374 74.8592 25.6399 74.0855V45.9757C25.6399 44.3697 26.8423 42.1367 28.311 41.0189L50.4633 24.0792C51.932 22.954 54.8157 22.037 56.8714 22.037H84.6164C86.672 22.037 89.543 21.1076 90.9991 19.9725L112.809 2.93364C114.262 1.79606 113.76 0.869141 111.711 0.869141H53.9496C51.894 0.869141 49.0262 1.79854 47.5765 2.9386L2.8469 38.0672C1.40033 39.2048 0.213867 41.4502 0.213867 43.0562V74.0855Z" fill="#E6E6E6"/>
</svg>
