<svg width="148" height="25" viewBox="0 0 148 25" fill="none" xmlns="http://www.w3.org/2000/svg">
<path d="M12.8709 21.1773V24.201H0.578689V21.1773H5.21289V3.87837H0.25V0.854627H8.46671V21.1992L12.8709 21.1773ZM34.1193 0.306846C35.016 0.283862 35.9079 0.444625 36.7401 0.77925C37.5723 1.11388 38.3272 1.61528 38.9583 2.2526C39.5895 2.88992 40.0835 3.64965 40.4101 4.48506C40.7366 5.32047 40.8887 6.21388 40.857 7.11028V17.8249C40.857 21.7689 38.0305 24.6612 34.1193 24.6612C30.2081 24.6612 27.4145 21.7689 27.4145 17.8249V7.11028C27.383 6.21671 27.5341 5.3261 27.8586 4.49295C28.1832 3.6598 28.6743 2.90162 29.3019 2.26479C29.9295 1.62795 30.6804 1.12585 31.5088 0.789197C32.3371 0.452541 33.2254 0.288409 34.1193 0.306846ZM34.1193 3.33059C32.0816 3.33059 30.6026 4.87533 30.6026 7.11028V12.9606L37.636 8.19489V7.09933C37.636 4.87534 36.2392 3.33059 34.1193 3.33059ZM34.1193 21.6374C36.1899 21.6374 37.636 20.0927 37.636 17.803V11.3501L30.6026 16.1158V17.8249C30.6026 20.0927 32.0487 21.6374 34.1193 21.6374ZM53.8394 0.306846C54.7361 0.283862 55.628 0.444625 56.4602 0.77925C57.2924 1.11388 58.0473 1.61528 58.6784 2.2526C59.3096 2.88992 59.8036 3.64965 60.1302 4.48506C60.4567 5.32047 60.6088 6.21388 60.5771 7.11028V17.8249C60.5771 21.7689 57.7506 24.6612 53.8394 24.6612C49.9283 24.6612 47.1346 21.7689 47.1346 17.8249V7.11028C47.1031 6.21718 47.2541 5.32705 47.5783 4.49427C47.9025 3.6615 48.3931 2.90357 49.0201 2.26681C49.6471 1.63005 50.3974 1.12783 51.2251 0.790835C52.0528 0.453842 52.9405 0.289164 53.8339 0.306846H53.8394ZM53.8394 3.33059C51.8017 3.33059 50.3227 4.87533 50.3227 7.11028V12.9606L57.3562 8.19489V7.09933C57.3507 4.87534 55.9593 3.33059 53.8339 3.33059H53.8394ZM53.8394 21.6374C55.91 21.6374 57.3562 20.0927 57.3562 17.803V11.3501L50.3227 16.1158V17.8249C50.3172 20.0927 51.7633 21.6374 53.8339 21.6374H53.8394ZM73.5595 0.306846C74.4562 0.283862 75.3481 0.444625 76.1803 0.77925C77.0125 1.11388 77.7674 1.61528 78.3986 2.2526C79.0297 2.88992 79.5238 3.64965 79.8503 4.48506C80.1768 5.32047 80.3289 6.21388 80.2972 7.11028V17.8249C80.2972 21.7689 77.4707 24.6612 73.5595 24.6612C69.6484 24.6612 66.8547 21.7689 66.8547 17.8249V7.11028C66.8233 6.21765 66.9741 5.32798 67.298 4.49558C67.6218 3.66318 68.1119 2.90551 68.7383 2.26883C69.3648 1.63215 70.1144 1.12982 70.9414 0.79249C71.7685 0.45516 72.6555 0.289918 73.5486 0.306846H73.5595ZM73.5595 3.33059C71.5218 3.33059 70.0428 4.87533 70.0428 7.11028V12.9606L77.0763 8.19489V7.09933C77.0653 4.87534 75.6794 3.33059 73.5486 3.33059H73.5595ZM73.5595 21.6374C75.6301 21.6374 77.0763 20.0927 77.0763 17.803V11.3501L70.0428 16.1158V17.8249C70.0318 20.0927 71.478 21.6374 73.5486 21.6374H73.5595ZM101.496 0.306846C102.393 0.283862 103.285 0.444625 104.117 0.77925C104.949 1.11388 105.704 1.61528 106.335 2.2526C106.967 2.88992 107.461 3.64965 107.787 4.48506C108.114 5.32047 108.266 6.21388 108.234 7.11028V17.8249C108.234 21.7689 105.408 24.6612 101.496 24.6612C97.5852 24.6612 94.7915 21.7689 94.7915 17.8249V7.11028C94.7602 6.21858 94.9107 5.32985 95.2339 4.4982C95.557 3.66655 96.0462 2.9094 96.6714 2.27288C97.2967 1.63635 98.045 1.13379 98.8707 0.795783C99.6964 0.457782 100.582 0.291424 101.474 0.306846H101.496ZM101.496 3.33059C99.4586 3.33059 97.9796 4.87533 97.9796 7.11028V12.9606L105.013 8.19489V7.09933C104.991 4.87534 103.578 3.33059 101.474 3.33059H101.496ZM101.496 21.6374C103.567 21.6374 105.013 20.0927 105.013 17.803V11.3501L97.9796 16.1158V17.8249C97.9577 20.0927 99.4038 21.6374 101.474 21.6374H101.496ZM121.216 0.306846C122.113 0.283862 123.005 0.444625 123.837 0.77925C124.669 1.11388 125.424 1.61528 126.055 2.2526C126.687 2.88992 127.181 3.64965 127.507 4.48506C127.834 5.32047 127.986 6.21388 127.954 7.11028V17.8249C127.954 21.7689 125.128 24.6612 121.216 24.6612C117.305 24.6612 114.512 21.7689 114.512 17.8249V7.11028C114.48 6.21952 114.631 5.33171 114.953 4.50081C115.276 3.66991 115.764 2.91327 116.388 2.2769C117.012 1.64054 117.759 1.13773 118.583 0.79906C119.408 0.460388 120.292 0.292927 121.184 0.306846H121.216ZM121.216 3.33059C119.179 3.33059 117.7 4.87533 117.7 7.11028V12.9606L124.733 8.19489V7.09933C124.7 4.87534 123.287 3.33059 121.184 3.33059H121.216ZM121.216 21.6374C123.287 21.6374 124.733 20.0927 124.733 17.803V11.3501L117.7 16.1158V17.8249C117.667 20.0927 119.113 21.6374 121.184 21.6374H121.216ZM140.937 0.306846C141.833 0.283862 142.725 0.444625 143.557 0.77925C144.39 1.11388 145.144 1.61528 145.776 2.2526C146.407 2.88992 146.901 3.64965 147.227 4.48506C147.554 5.32047 147.706 6.21388 147.674 7.11028V17.8249C147.674 21.7689 144.848 24.6612 140.937 24.6612C137.025 24.6612 134.232 21.7689 134.232 17.8249V7.11028C134.2 6.21999 134.35 5.33265 134.673 4.50211C134.995 3.67158 135.483 2.9152 136.106 2.27891C136.729 1.64262 137.476 1.13971 138.3 0.800698C139.123 0.461691 140.007 0.293677 140.898 0.306846H140.937ZM140.937 3.33059C138.899 3.33059 137.42 4.87533 137.42 7.11028V12.9606L144.453 8.19489V7.09933C144.415 4.87534 143.002 3.33059 140.898 3.33059H140.937ZM140.937 21.6374C143.007 21.6374 144.453 20.0927 144.453 17.803V11.3501L137.42 16.1158V17.8249C137.381 20.0927 138.828 21.6374 140.898 21.6374H140.937Z" fill="white"/>
</svg>
